<mxfile modified="2024-04-23T09:01:13.619Z" host="app.diagrams.net" agent="Mozilla/5.0 (Windows NT 10.0; Win64; x64) AppleWebKit/537.36 (KHTML, like Gecko) Chrome/124.0.0.0 Safari/537.36" etag="Ou5gYuyGdfX4Tp-TX5k1" version="24.2.8" type="github">
  <diagram id="l8hXMBHkgcEJcSW0mbfh" name="Page-1">
    <mxGraphModel dx="9560" dy="5227" grid="1" gridSize="10" guides="1" tooltips="1" connect="1" arrows="1" fold="1" page="1" pageScale="1" pageWidth="2000" pageHeight="1600" math="0" shadow="0">
      <root>
        <mxCell id="0" />
        <mxCell id="1" parent="0" />
        <mxCell id="uINMOwZKKyLvstUR0j1v-2" value="                          Start&#xa;                              |&#xa;                            [Corporate Office]&#xa;                           /          |          \&#xa;               [Firewall]     [Database Server]    [Premium Gym Outlet]   [Retail Shop]&#xa;               /      \             /        \          /           \&#xa;    [Switch]       [VPN Server] [Membership Database] [Switch] [Point-of-Sale Equipment]&#xa;      /   \          /   |   \            |            |         |             |&#xa;[Wireless Access Points]   |    \  [Fitness Classes &amp; Training Programs] [Inventory Database]&#xa;      |             |       |     \                  |                   |&#xa;[IT Support Team Devices]  |      \       [Website for Chain]      [Health Resources]&#xa;                         |       \&#xa;               [Remote Users]   \&#xa;                    /   |   \     \&#xa;  [Sales &amp; Marketing Devices] |  [Finance Devices] [Administration Devices]&#xa;                             |&#xa;                   [Guest Devices]" style="text;whiteSpace=wrap;" vertex="1" parent="1">
          <mxGeometry x="100" y="20" width="520" height="270" as="geometry" />
        </mxCell>
        <mxCell id="uINMOwZKKyLvstUR0j1v-79" style="edgeStyle=orthogonalEdgeStyle;rounded=0;orthogonalLoop=1;jettySize=auto;html=1;exitX=0.25;exitY=0;exitDx=0;exitDy=0;entryX=0;entryY=0.5;entryDx=0;entryDy=0;" edge="1" parent="1" target="uINMOwZKKyLvstUR0j1v-81">
          <mxGeometry relative="1" as="geometry">
            <Array as="points">
              <mxPoint x="6680" y="1200" />
              <mxPoint x="6680" y="1060" />
              <mxPoint x="5430" y="1060" />
              <mxPoint x="5430" y="2100" />
            </Array>
            <mxPoint x="6710" y="230" as="sourcePoint" />
          </mxGeometry>
        </mxCell>
        <mxCell id="uINMOwZKKyLvstUR0j1v-125" value="Corporate Office" style="sketch=0;outlineConnect=0;strokeColor=#6c8ebf;fillColor=#dae8fc;dashed=0;verticalLabelPosition=bottom;verticalAlign=top;align=center;html=1;fontSize=12;fontStyle=0;aspect=fixed;shape=mxgraph.aws4.resourceIcon;resIcon=mxgraph.aws4.office_building;" vertex="1" parent="1">
          <mxGeometry x="1855" y="1696" width="200" height="200" as="geometry" />
        </mxCell>
        <mxCell id="uINMOwZKKyLvstUR0j1v-133" value="" style="sketch=0;aspect=fixed;pointerEvents=1;shadow=0;dashed=0;html=1;strokeColor=none;labelPosition=center;verticalLabelPosition=bottom;verticalAlign=top;align=center;fillColor=#00188D;shape=mxgraph.azure.laptop" vertex="1" parent="1">
          <mxGeometry x="265" y="1781" width="50" height="30" as="geometry" />
        </mxCell>
        <mxCell id="uINMOwZKKyLvstUR0j1v-134" style="edgeStyle=orthogonalEdgeStyle;rounded=0;orthogonalLoop=1;jettySize=auto;html=1;exitX=0;exitY=0.4;exitDx=0;exitDy=0;entryX=0.92;entryY=0.5;entryDx=0;entryDy=0;entryPerimeter=0;exitPerimeter=0;" edge="1" parent="1" source="uINMOwZKKyLvstUR0j1v-203" target="uINMOwZKKyLvstUR0j1v-133">
          <mxGeometry relative="1" as="geometry">
            <mxPoint x="855" y="1796" as="sourcePoint" />
            <Array as="points">
              <mxPoint x="890" y="1802" />
              <mxPoint x="603" y="1802" />
              <mxPoint x="603" y="1796" />
            </Array>
          </mxGeometry>
        </mxCell>
        <mxCell id="uINMOwZKKyLvstUR0j1v-137" value="&lt;div&gt;Finance Devices&lt;/div&gt;&lt;div&gt;&lt;br&gt;&lt;/div&gt;" style="text;html=1;align=center;verticalAlign=middle;resizable=0;points=[];autosize=1;strokeColor=none;fillColor=none;" vertex="1" parent="1">
          <mxGeometry x="235" y="1818" width="110" height="40" as="geometry" />
        </mxCell>
        <mxCell id="uINMOwZKKyLvstUR0j1v-138" value="" style="sketch=0;aspect=fixed;pointerEvents=1;shadow=0;dashed=0;html=1;strokeColor=none;labelPosition=center;verticalLabelPosition=bottom;verticalAlign=top;align=center;fillColor=#00188D;shape=mxgraph.azure.laptop" vertex="1" parent="1">
          <mxGeometry x="215" y="1944" width="50" height="30" as="geometry" />
        </mxCell>
        <mxCell id="uINMOwZKKyLvstUR0j1v-139" style="edgeStyle=orthogonalEdgeStyle;rounded=0;orthogonalLoop=1;jettySize=auto;html=1;exitX=0;exitY=0.4;exitDx=0;exitDy=0;exitPerimeter=0;" edge="1" parent="1" source="uINMOwZKKyLvstUR0j1v-203">
          <mxGeometry relative="1" as="geometry">
            <mxPoint x="855" y="1826" as="sourcePoint" />
            <mxPoint x="265" y="1956" as="targetPoint" />
            <Array as="points">
              <mxPoint x="855" y="1791" />
              <mxPoint x="855" y="1960" />
              <mxPoint x="295" y="1960" />
              <mxPoint x="295" y="1956" />
            </Array>
          </mxGeometry>
        </mxCell>
        <mxCell id="uINMOwZKKyLvstUR0j1v-140" value="&lt;span style=&quot;text-wrap: wrap;&quot;&gt;Sales &amp;amp; Marketing Devices&lt;/span&gt;" style="text;html=1;align=center;verticalAlign=middle;resizable=0;points=[];autosize=1;strokeColor=none;fillColor=none;" vertex="1" parent="1">
          <mxGeometry x="155" y="1986" width="170" height="30" as="geometry" />
        </mxCell>
        <mxCell id="uINMOwZKKyLvstUR0j1v-141" value="" style="image;sketch=0;aspect=fixed;html=1;points=[];align=center;fontSize=12;image=img/lib/mscae/Web_App_Firewall.svg;" vertex="1" parent="1">
          <mxGeometry x="2470" y="1730" width="118" height="118" as="geometry" />
        </mxCell>
        <mxCell id="uINMOwZKKyLvstUR0j1v-143" value="" style="sketch=0;aspect=fixed;pointerEvents=1;shadow=0;dashed=0;html=1;strokeColor=none;labelPosition=center;verticalLabelPosition=bottom;verticalAlign=top;align=center;fillColor=#00188D;shape=mxgraph.mscae.enterprise.database_server" vertex="1" parent="1">
          <mxGeometry x="2150" y="1288" width="85.12" height="112" as="geometry" />
        </mxCell>
        <mxCell id="uINMOwZKKyLvstUR0j1v-267" style="edgeStyle=orthogonalEdgeStyle;rounded=0;orthogonalLoop=1;jettySize=auto;html=1;" edge="1" parent="1" source="uINMOwZKKyLvstUR0j1v-144" target="uINMOwZKKyLvstUR0j1v-145">
          <mxGeometry relative="1" as="geometry">
            <Array as="points">
              <mxPoint x="150" y="1500" />
              <mxPoint x="150" y="2618" />
            </Array>
          </mxGeometry>
        </mxCell>
        <mxCell id="uINMOwZKKyLvstUR0j1v-144" value="" style="shape=image;html=1;verticalAlign=top;verticalLabelPosition=bottom;labelBackgroundColor=#ffffff;imageAspect=0;aspect=fixed;image=https://cdn3.iconfinder.com/data/icons/forall/1062/gym-128.png" vertex="1" parent="1">
          <mxGeometry x="1340" y="1480" width="110" height="110" as="geometry" />
        </mxCell>
        <mxCell id="uINMOwZKKyLvstUR0j1v-233" style="edgeStyle=orthogonalEdgeStyle;rounded=0;orthogonalLoop=1;jettySize=auto;html=1;" edge="1" parent="1" source="uINMOwZKKyLvstUR0j1v-145" target="uINMOwZKKyLvstUR0j1v-146">
          <mxGeometry relative="1" as="geometry" />
        </mxCell>
        <mxCell id="uINMOwZKKyLvstUR0j1v-145" value="" style="image;html=1;image=img/lib/clip_art/networking/Switch_128x128.png" vertex="1" parent="1">
          <mxGeometry x="1850" y="2510" width="170" height="216" as="geometry" />
        </mxCell>
        <mxCell id="uINMOwZKKyLvstUR0j1v-146" value="" style="sketch=0;pointerEvents=1;shadow=0;dashed=0;html=1;strokeColor=none;fillColor=#005F4B;labelPosition=center;verticalLabelPosition=bottom;verticalAlign=top;align=center;outlineConnect=0;shape=mxgraph.veeam2.vpn_server;" vertex="1" parent="1">
          <mxGeometry x="1250" y="2130" width="140" height="146" as="geometry" />
        </mxCell>
        <mxCell id="uINMOwZKKyLvstUR0j1v-263" style="edgeStyle=orthogonalEdgeStyle;rounded=0;orthogonalLoop=1;jettySize=auto;html=1;" edge="1" parent="1" source="uINMOwZKKyLvstUR0j1v-153" target="uINMOwZKKyLvstUR0j1v-145">
          <mxGeometry relative="1" as="geometry" />
        </mxCell>
        <mxCell id="uINMOwZKKyLvstUR0j1v-153" value="" style="shape=image;html=1;verticalAlign=top;verticalLabelPosition=bottom;labelBackgroundColor=#ffffff;imageAspect=0;aspect=fixed;image=https://cdn4.iconfinder.com/data/icons/stash/128/pricing-table-128.png" vertex="1" parent="1">
          <mxGeometry x="2430" y="2130" width="128" height="128" as="geometry" />
        </mxCell>
        <mxCell id="uINMOwZKKyLvstUR0j1v-165" value="" style="endArrow=classic;html=1;rounded=0;entryX=0.5;entryY=0;entryDx=0;entryDy=0;" edge="1" parent="1" source="uINMOwZKKyLvstUR0j1v-145" target="uINMOwZKKyLvstUR0j1v-228">
          <mxGeometry relative="1" as="geometry">
            <mxPoint x="1320" y="2400" as="sourcePoint" />
            <mxPoint x="1420" y="2400" as="targetPoint" />
          </mxGeometry>
        </mxCell>
        <mxCell id="uINMOwZKKyLvstUR0j1v-166" value="Wireless Acess Points" style="edgeLabel;resizable=0;html=1;;align=center;verticalAlign=middle;" connectable="0" vertex="1" parent="uINMOwZKKyLvstUR0j1v-165">
          <mxGeometry relative="1" as="geometry" />
        </mxCell>
        <mxCell id="uINMOwZKKyLvstUR0j1v-169" value="" style="endArrow=classic;html=1;rounded=0;exitX=0.42;exitY=0.971;exitDx=0;exitDy=0;exitPerimeter=0;entryX=0.5;entryY=1;entryDx=0;entryDy=0;entryPerimeter=0;" edge="1" parent="1" source="uINMOwZKKyLvstUR0j1v-270" target="uINMOwZKKyLvstUR0j1v-278">
          <mxGeometry relative="1" as="geometry">
            <mxPoint x="1590" y="899.9999999999997" as="sourcePoint" />
            <mxPoint x="1690" y="899.9999999999997" as="targetPoint" />
          </mxGeometry>
        </mxCell>
        <mxCell id="uINMOwZKKyLvstUR0j1v-170" value="Locker" style="edgeLabel;resizable=0;html=1;;align=center;verticalAlign=middle;" connectable="0" vertex="1" parent="uINMOwZKKyLvstUR0j1v-169">
          <mxGeometry relative="1" as="geometry" />
        </mxCell>
        <mxCell id="uINMOwZKKyLvstUR0j1v-171" value="" style="endArrow=classic;html=1;rounded=0;exitX=0.414;exitY=0.976;exitDx=0;exitDy=0;exitPerimeter=0;" edge="1" parent="1" source="uINMOwZKKyLvstUR0j1v-270" target="uINMOwZKKyLvstUR0j1v-281">
          <mxGeometry relative="1" as="geometry">
            <mxPoint x="1436" y="950" as="sourcePoint" />
            <mxPoint x="1536" y="950" as="targetPoint" />
          </mxGeometry>
        </mxCell>
        <mxCell id="uINMOwZKKyLvstUR0j1v-172" value="Vending Machines" style="edgeLabel;resizable=0;html=1;;align=center;verticalAlign=middle;" connectable="0" vertex="1" parent="uINMOwZKKyLvstUR0j1v-171">
          <mxGeometry relative="1" as="geometry" />
        </mxCell>
        <mxCell id="uINMOwZKKyLvstUR0j1v-173" value="" style="endArrow=classic;html=1;rounded=0;entryX=0.25;entryY=1;entryDx=0;entryDy=0;exitX=0.182;exitY=-0.007;exitDx=0;exitDy=0;exitPerimeter=0;" edge="1" parent="1" source="uINMOwZKKyLvstUR0j1v-143" target="uINMOwZKKyLvstUR0j1v-210">
          <mxGeometry relative="1" as="geometry">
            <mxPoint x="2520" y="1000" as="sourcePoint" />
            <mxPoint x="2810" y="839.9999999999998" as="targetPoint" />
          </mxGeometry>
        </mxCell>
        <mxCell id="uINMOwZKKyLvstUR0j1v-174" value="Fitness Classes &amp; Training Programs" style="edgeLabel;resizable=0;html=1;;align=center;verticalAlign=middle;" connectable="0" vertex="1" parent="uINMOwZKKyLvstUR0j1v-173">
          <mxGeometry relative="1" as="geometry" />
        </mxCell>
        <mxCell id="uINMOwZKKyLvstUR0j1v-175" value="" style="endArrow=classic;html=1;rounded=0;entryX=0.84;entryY=0.28;entryDx=0;entryDy=0;entryPerimeter=0;" edge="1" parent="1" source="uINMOwZKKyLvstUR0j1v-146" target="uINMOwZKKyLvstUR0j1v-223">
          <mxGeometry relative="1" as="geometry">
            <mxPoint x="1200" y="2380" as="sourcePoint" />
            <mxPoint x="1300" y="2380" as="targetPoint" />
          </mxGeometry>
        </mxCell>
        <mxCell id="uINMOwZKKyLvstUR0j1v-176" value="Remote Users" style="edgeLabel;resizable=0;html=1;;align=center;verticalAlign=middle;" connectable="0" vertex="1" parent="uINMOwZKKyLvstUR0j1v-175">
          <mxGeometry relative="1" as="geometry" />
        </mxCell>
        <mxCell id="uINMOwZKKyLvstUR0j1v-177" value="" style="endArrow=classic;html=1;rounded=0;exitX=1.025;exitY=0.52;exitDx=0;exitDy=0;exitPerimeter=0;entryX=0.25;entryY=0;entryDx=0;entryDy=0;" edge="1" parent="1" source="uINMOwZKKyLvstUR0j1v-125" target="uINMOwZKKyLvstUR0j1v-153">
          <mxGeometry relative="1" as="geometry">
            <mxPoint x="2100" y="2210" as="sourcePoint" />
            <mxPoint x="2200" y="2210" as="targetPoint" />
          </mxGeometry>
        </mxCell>
        <mxCell id="uINMOwZKKyLvstUR0j1v-178" value="&#xa;&lt;span style=&quot;color: rgb(0, 0, 0); font-family: Helvetica; font-size: 16px; font-style: normal; font-variant-ligatures: normal; font-variant-caps: normal; font-weight: 400; letter-spacing: normal; orphans: 2; text-align: center; text-indent: 0px; text-transform: none; widows: 2; word-spacing: 0px; -webkit-text-stroke-width: 0px; white-space: nowrap; background-color: rgb(251, 251, 251); text-decoration-thickness: initial; text-decoration-style: initial; text-decoration-color: initial; display: inline !important; float: none;&quot;&gt;Retail Shop&lt;/span&gt;&#xa;&#xa;" style="edgeLabel;resizable=0;html=1;;align=center;verticalAlign=middle;" connectable="0" vertex="1" parent="uINMOwZKKyLvstUR0j1v-177">
          <mxGeometry relative="1" as="geometry" />
        </mxCell>
        <mxCell id="uINMOwZKKyLvstUR0j1v-179" value="" style="endArrow=classic;html=1;rounded=0;entryX=0.521;entryY=1.015;entryDx=0;entryDy=0;entryPerimeter=0;exitX=0.312;exitY=-0.006;exitDx=0;exitDy=0;exitPerimeter=0;" edge="1" parent="1" source="uINMOwZKKyLvstUR0j1v-143" target="uINMOwZKKyLvstUR0j1v-215">
          <mxGeometry relative="1" as="geometry">
            <mxPoint x="2550" y="1000" as="sourcePoint" />
            <mxPoint x="2360" y="780" as="targetPoint" />
          </mxGeometry>
        </mxCell>
        <mxCell id="uINMOwZKKyLvstUR0j1v-180" value="Website for Chain" style="edgeLabel;resizable=0;html=1;;align=center;verticalAlign=middle;" connectable="0" vertex="1" parent="uINMOwZKKyLvstUR0j1v-179">
          <mxGeometry relative="1" as="geometry" />
        </mxCell>
        <mxCell id="uINMOwZKKyLvstUR0j1v-181" value="" style="endArrow=classic;html=1;rounded=0;entryX=1;entryY=1;entryDx=0;entryDy=0;" edge="1" parent="1" source="uINMOwZKKyLvstUR0j1v-125" target="uINMOwZKKyLvstUR0j1v-144">
          <mxGeometry relative="1" as="geometry">
            <mxPoint x="1410" y="1416" as="sourcePoint" />
            <mxPoint x="1510" y="1416" as="targetPoint" />
          </mxGeometry>
        </mxCell>
        <mxCell id="uINMOwZKKyLvstUR0j1v-182" value="&#xa;&lt;span style=&quot;color: rgb(0, 0, 0); font-family: Helvetica; font-size: 16px; font-style: normal; font-variant-ligatures: normal; font-variant-caps: normal; font-weight: 400; letter-spacing: normal; orphans: 2; text-align: center; text-indent: 0px; text-transform: none; widows: 2; word-spacing: 0px; -webkit-text-stroke-width: 0px; white-space: nowrap; background-color: rgb(251, 251, 251); text-decoration-thickness: initial; text-decoration-style: initial; text-decoration-color: initial; display: inline !important; float: none;&quot;&gt;Premium Gym Outlet&lt;/span&gt;&#xa;&#xa;" style="edgeLabel;resizable=0;html=1;;align=center;verticalAlign=middle;" connectable="0" vertex="1" parent="uINMOwZKKyLvstUR0j1v-181">
          <mxGeometry relative="1" as="geometry" />
        </mxCell>
        <mxCell id="uINMOwZKKyLvstUR0j1v-183" value="" style="endArrow=classic;html=1;rounded=0;exitX=0.214;exitY=0.014;exitDx=0;exitDy=0;exitPerimeter=0;" edge="1" parent="1" source="uINMOwZKKyLvstUR0j1v-143" target="uINMOwZKKyLvstUR0j1v-213">
          <mxGeometry relative="1" as="geometry">
            <mxPoint x="2520" y="990" as="sourcePoint" />
            <mxPoint x="2860" y="970" as="targetPoint" />
          </mxGeometry>
        </mxCell>
        <mxCell id="uINMOwZKKyLvstUR0j1v-184" value="Personalised Workout Plans" style="edgeLabel;resizable=0;html=1;;align=center;verticalAlign=middle;" connectable="0" vertex="1" parent="uINMOwZKKyLvstUR0j1v-183">
          <mxGeometry relative="1" as="geometry" />
        </mxCell>
        <mxCell id="uINMOwZKKyLvstUR0j1v-185" value="" style="endArrow=classic;html=1;rounded=0;exitX=0.185;exitY=0;exitDx=0;exitDy=0;exitPerimeter=0;entryX=0.5;entryY=1;entryDx=0;entryDy=0;" edge="1" parent="1" source="uINMOwZKKyLvstUR0j1v-143" target="uINMOwZKKyLvstUR0j1v-212">
          <mxGeometry relative="1" as="geometry">
            <mxPoint x="2520" y="1000" as="sourcePoint" />
            <mxPoint x="2830" y="650" as="targetPoint" />
          </mxGeometry>
        </mxCell>
        <mxCell id="uINMOwZKKyLvstUR0j1v-186" value="Trainer Schedules" style="edgeLabel;resizable=0;html=1;;align=center;verticalAlign=middle;" connectable="0" vertex="1" parent="uINMOwZKKyLvstUR0j1v-185">
          <mxGeometry relative="1" as="geometry" />
        </mxCell>
        <mxCell id="uINMOwZKKyLvstUR0j1v-187" value="" style="endArrow=classic;html=1;rounded=0;entryX=1;entryY=0.4;entryDx=0;entryDy=0;entryPerimeter=0;" edge="1" parent="1" source="uINMOwZKKyLvstUR0j1v-125" target="uINMOwZKKyLvstUR0j1v-203">
          <mxGeometry relative="1" as="geometry">
            <mxPoint x="1170" y="1583.76" as="sourcePoint" />
            <mxPoint x="1270" y="1583.76" as="targetPoint" />
          </mxGeometry>
        </mxCell>
        <mxCell id="uINMOwZKKyLvstUR0j1v-188" value="Devices" style="edgeLabel;resizable=0;html=1;;align=center;verticalAlign=middle;" connectable="0" vertex="1" parent="uINMOwZKKyLvstUR0j1v-187">
          <mxGeometry relative="1" as="geometry" />
        </mxCell>
        <mxCell id="uINMOwZKKyLvstUR0j1v-189" value="" style="endArrow=classic;html=1;rounded=0;" edge="1" parent="1" target="uINMOwZKKyLvstUR0j1v-146">
          <mxGeometry relative="1" as="geometry">
            <mxPoint x="1850" y="1800" as="sourcePoint" />
            <mxPoint x="1460" y="2210" as="targetPoint" />
          </mxGeometry>
        </mxCell>
        <mxCell id="uINMOwZKKyLvstUR0j1v-190" value="&#xa;&lt;span style=&quot;color: rgb(0, 0, 0); font-family: Helvetica; font-size: 16px; font-style: normal; font-variant-ligatures: normal; font-variant-caps: normal; font-weight: 400; letter-spacing: normal; orphans: 2; text-align: center; text-indent: 0px; text-transform: none; widows: 2; word-spacing: 0px; -webkit-text-stroke-width: 0px; white-space: nowrap; background-color: rgb(251, 251, 251); text-decoration-thickness: initial; text-decoration-style: initial; text-decoration-color: initial; display: inline !important; float: none;&quot;&gt;Vpn Server&lt;/span&gt;&#xa;&#xa;" style="edgeLabel;resizable=0;html=1;;align=center;verticalAlign=middle;" connectable="0" vertex="1" parent="uINMOwZKKyLvstUR0j1v-189">
          <mxGeometry relative="1" as="geometry" />
        </mxCell>
        <mxCell id="uINMOwZKKyLvstUR0j1v-191" value="" style="endArrow=classic;html=1;rounded=0;entryX=0.5;entryY=1;entryDx=0;entryDy=0;exitX=0.183;exitY=0;exitDx=0;exitDy=0;exitPerimeter=0;" edge="1" parent="1" source="uINMOwZKKyLvstUR0j1v-143" target="uINMOwZKKyLvstUR0j1v-209">
          <mxGeometry relative="1" as="geometry">
            <mxPoint x="2490" y="980" as="sourcePoint" />
            <mxPoint x="2505" y="600" as="targetPoint" />
          </mxGeometry>
        </mxCell>
        <mxCell id="uINMOwZKKyLvstUR0j1v-192" value="Membership Database" style="edgeLabel;resizable=0;html=1;;align=center;verticalAlign=middle;" connectable="0" vertex="1" parent="uINMOwZKKyLvstUR0j1v-191">
          <mxGeometry relative="1" as="geometry" />
        </mxCell>
        <mxCell id="uINMOwZKKyLvstUR0j1v-193" value="" style="endArrow=classic;html=1;rounded=0;entryX=0;entryY=0.5;entryDx=0;entryDy=0;entryPerimeter=0;" edge="1" parent="1" source="uINMOwZKKyLvstUR0j1v-125" target="uINMOwZKKyLvstUR0j1v-143">
          <mxGeometry relative="1" as="geometry">
            <mxPoint x="1940" y="1690" as="sourcePoint" />
            <mxPoint x="1640" y="1546" as="targetPoint" />
          </mxGeometry>
        </mxCell>
        <mxCell id="uINMOwZKKyLvstUR0j1v-194" value="Database Server" style="edgeLabel;resizable=0;html=1;;align=center;verticalAlign=middle;" connectable="0" vertex="1" parent="uINMOwZKKyLvstUR0j1v-193">
          <mxGeometry relative="1" as="geometry" />
        </mxCell>
        <mxCell id="uINMOwZKKyLvstUR0j1v-195" value="" style="endArrow=classic;html=1;rounded=0;entryX=-0.016;entryY=0.65;entryDx=0;entryDy=0;entryPerimeter=0;" edge="1" parent="1" target="uINMOwZKKyLvstUR0j1v-141">
          <mxGeometry relative="1" as="geometry">
            <mxPoint x="2055" y="1798.4586567164179" as="sourcePoint" />
            <mxPoint x="2925" y="1765.995970149254" as="targetPoint" />
          </mxGeometry>
        </mxCell>
        <mxCell id="uINMOwZKKyLvstUR0j1v-196" value="Firewall" style="edgeLabel;resizable=0;html=1;;align=center;verticalAlign=middle;" connectable="0" vertex="1" parent="uINMOwZKKyLvstUR0j1v-195">
          <mxGeometry relative="1" as="geometry" />
        </mxCell>
        <mxCell id="uINMOwZKKyLvstUR0j1v-197" value="" style="endArrow=classic;html=1;rounded=0;exitX=-0.007;exitY=0.705;exitDx=0;exitDy=0;exitPerimeter=0;" edge="1" parent="1" source="uINMOwZKKyLvstUR0j1v-141" target="uINMOwZKKyLvstUR0j1v-145">
          <mxGeometry relative="1" as="geometry">
            <mxPoint x="2920" y="1860" as="sourcePoint" />
            <mxPoint x="3200" y="1790" as="targetPoint" />
          </mxGeometry>
        </mxCell>
        <mxCell id="uINMOwZKKyLvstUR0j1v-198" value="Switch" style="edgeLabel;resizable=0;html=1;;align=center;verticalAlign=middle;rotation=0;" connectable="0" vertex="1" parent="uINMOwZKKyLvstUR0j1v-197">
          <mxGeometry relative="1" as="geometry" />
        </mxCell>
        <mxCell id="uINMOwZKKyLvstUR0j1v-201" value="" style="sketch=0;aspect=fixed;pointerEvents=1;shadow=0;dashed=0;html=1;strokeColor=none;labelPosition=center;verticalLabelPosition=bottom;verticalAlign=top;align=center;fillColor=#00188D;shape=mxgraph.azure.laptop" vertex="1" parent="1">
          <mxGeometry x="265" y="1560" width="50" height="30" as="geometry" />
        </mxCell>
        <mxCell id="uINMOwZKKyLvstUR0j1v-202" value="&lt;div&gt;&lt;div&gt;Administration Devices&lt;/div&gt;&lt;/div&gt;&lt;div&gt;&lt;br&gt;&lt;/div&gt;" style="text;html=1;align=center;verticalAlign=middle;resizable=0;points=[];autosize=1;strokeColor=none;fillColor=none;" vertex="1" parent="1">
          <mxGeometry x="220" y="1600" width="150" height="40" as="geometry" />
        </mxCell>
        <mxCell id="uINMOwZKKyLvstUR0j1v-203" value="" style="points=[[0.03,0.03,0],[0.5,0,0],[0.97,0.03,0],[1,0.4,0],[0.97,0.745,0],[0.5,1,0],[0.03,0.745,0],[0,0.4,0]];verticalLabelPosition=bottom;sketch=0;html=1;verticalAlign=top;aspect=fixed;align=center;pointerEvents=1;shape=mxgraph.cisco19.workstation;fillColor=#005073;strokeColor=none;" vertex="1" parent="1">
          <mxGeometry x="1250" y="1754.6" width="129.25" height="103.4" as="geometry" />
        </mxCell>
        <mxCell id="uINMOwZKKyLvstUR0j1v-206" style="edgeStyle=orthogonalEdgeStyle;rounded=0;orthogonalLoop=1;jettySize=auto;html=1;exitX=0;exitY=0.4;exitDx=0;exitDy=0;exitPerimeter=0;entryX=0.92;entryY=0.5;entryDx=0;entryDy=0;entryPerimeter=0;" edge="1" parent="1" source="uINMOwZKKyLvstUR0j1v-203" target="uINMOwZKKyLvstUR0j1v-201">
          <mxGeometry relative="1" as="geometry">
            <Array as="points">
              <mxPoint x="890" y="1580" />
              <mxPoint x="311" y="1580" />
            </Array>
          </mxGeometry>
        </mxCell>
        <mxCell id="uINMOwZKKyLvstUR0j1v-209" value="" style="image;aspect=fixed;perimeter=ellipsePerimeter;html=1;align=center;shadow=0;dashed=0;spacingTop=3;image=img/lib/active_directory/database.svg;" vertex="1" parent="1">
          <mxGeometry x="2120" y="870" width="50" height="37" as="geometry" />
        </mxCell>
        <mxCell id="uINMOwZKKyLvstUR0j1v-210" value="" style="image;aspect=fixed;perimeter=ellipsePerimeter;html=1;align=center;shadow=0;dashed=0;fontColor=#4277BB;labelBackgroundColor=default;fontSize=12;spacingTop=3;image=img/lib/ibm/blockchain/membership.svg;" vertex="1" parent="1">
          <mxGeometry x="2340" y="946" width="60" height="60" as="geometry" />
        </mxCell>
        <mxCell id="uINMOwZKKyLvstUR0j1v-212" value="" style="shape=image;html=1;verticalAlign=top;verticalLabelPosition=bottom;labelBackgroundColor=#ffffff;imageAspect=0;aspect=fixed;image=https://cdn4.iconfinder.com/data/icons/essentials-74/24/011_-_Calendar-128.png" vertex="1" parent="1">
          <mxGeometry x="2490" y="1006" width="78" height="78" as="geometry" />
        </mxCell>
        <mxCell id="uINMOwZKKyLvstUR0j1v-213" value="" style="shadow=0;dashed=0;html=1;strokeColor=none;fillColor=#4495D1;labelPosition=center;verticalLabelPosition=bottom;verticalAlign=top;align=center;outlineConnect=0;shape=mxgraph.veeam.failover_plan;" vertex="1" parent="1">
          <mxGeometry x="2470" y="1200" width="38" height="50" as="geometry" />
        </mxCell>
        <mxCell id="uINMOwZKKyLvstUR0j1v-215" value="" style="html=1;strokeWidth=1;shadow=0;dashed=0;shape=mxgraph.ios7.misc.link;fillColor=#4CDA64;strokeColor=none;buttonText=;strokeColor2=#222222;fontColor=#222222;fontSize=8;verticalLabelPosition=bottom;verticalAlign=top;align=center;sketch=0;" vertex="1" parent="1">
          <mxGeometry x="1990" y="900" width="60" height="60" as="geometry" />
        </mxCell>
        <mxCell id="uINMOwZKKyLvstUR0j1v-220" value="" style="sketch=0;aspect=fixed;pointerEvents=1;shadow=0;dashed=0;html=1;strokeColor=none;labelPosition=center;verticalLabelPosition=bottom;verticalAlign=top;align=center;fillColor=#00188D;shape=mxgraph.azure.laptop" vertex="1" parent="1">
          <mxGeometry x="919.6199999999999" y="1980" width="70" height="42" as="geometry" />
        </mxCell>
        <mxCell id="uINMOwZKKyLvstUR0j1v-221" style="edgeStyle=orthogonalEdgeStyle;rounded=0;orthogonalLoop=1;jettySize=auto;html=1;entryX=0.5;entryY=0;entryDx=0;entryDy=0;entryPerimeter=0;" edge="1" parent="1" source="uINMOwZKKyLvstUR0j1v-203" target="uINMOwZKKyLvstUR0j1v-220">
          <mxGeometry relative="1" as="geometry" />
        </mxCell>
        <mxCell id="uINMOwZKKyLvstUR0j1v-222" value="IT Support Team Devices" style="text;html=1;align=center;verticalAlign=middle;resizable=0;points=[];autosize=1;strokeColor=none;fillColor=none;" vertex="1" parent="1">
          <mxGeometry x="870" y="2028" width="160" height="30" as="geometry" />
        </mxCell>
        <mxCell id="uINMOwZKKyLvstUR0j1v-223" value="" style="verticalLabelPosition=bottom;html=1;verticalAlign=top;align=center;strokeColor=none;fillColor=#00BEF2;shape=mxgraph.azure.user;" vertex="1" parent="1">
          <mxGeometry x="1050" y="2420" width="57.5" height="60" as="geometry" />
        </mxCell>
        <mxCell id="uINMOwZKKyLvstUR0j1v-224" style="edgeStyle=orthogonalEdgeStyle;rounded=0;orthogonalLoop=1;jettySize=auto;html=1;entryX=0.92;entryY=0.5;entryDx=0;entryDy=0;entryPerimeter=0;" edge="1" parent="1" target="uINMOwZKKyLvstUR0j1v-138">
          <mxGeometry relative="1" as="geometry">
            <mxPoint x="1250" y="2270" as="sourcePoint" />
            <Array as="points">
              <mxPoint x="1250" y="2183" />
              <mxPoint x="580" y="2183" />
              <mxPoint x="580" y="1959" />
            </Array>
          </mxGeometry>
        </mxCell>
        <mxCell id="uINMOwZKKyLvstUR0j1v-226" style="edgeStyle=orthogonalEdgeStyle;rounded=0;orthogonalLoop=1;jettySize=auto;html=1;entryX=0.92;entryY=0.5;entryDx=0;entryDy=0;entryPerimeter=0;" edge="1" parent="1" source="uINMOwZKKyLvstUR0j1v-146" target="uINMOwZKKyLvstUR0j1v-133">
          <mxGeometry relative="1" as="geometry">
            <Array as="points">
              <mxPoint x="580" y="2183" />
              <mxPoint x="580" y="1796" />
            </Array>
          </mxGeometry>
        </mxCell>
        <mxCell id="uINMOwZKKyLvstUR0j1v-227" style="edgeStyle=orthogonalEdgeStyle;rounded=0;orthogonalLoop=1;jettySize=auto;html=1;entryX=0.9;entryY=0.02;entryDx=0;entryDy=0;entryPerimeter=0;" edge="1" parent="1" source="uINMOwZKKyLvstUR0j1v-146" target="uINMOwZKKyLvstUR0j1v-201">
          <mxGeometry relative="1" as="geometry">
            <Array as="points">
              <mxPoint x="783" y="2183" />
              <mxPoint x="783" y="1570" />
              <mxPoint x="310" y="1570" />
            </Array>
          </mxGeometry>
        </mxCell>
        <mxCell id="uINMOwZKKyLvstUR0j1v-228" value="" style="image;html=1;image=img/lib/clip_art/networking/Wireless_Router_128x128.png" vertex="1" parent="1">
          <mxGeometry x="1880" y="2840" width="110" height="120" as="geometry" />
        </mxCell>
        <mxCell id="uINMOwZKKyLvstUR0j1v-232" style="edgeStyle=orthogonalEdgeStyle;rounded=0;orthogonalLoop=1;jettySize=auto;html=1;entryX=0.375;entryY=1.233;entryDx=0;entryDy=0;entryPerimeter=0;" edge="1" parent="1" source="uINMOwZKKyLvstUR0j1v-145" target="uINMOwZKKyLvstUR0j1v-222">
          <mxGeometry relative="1" as="geometry">
            <Array as="points">
              <mxPoint x="930" y="2618" />
            </Array>
          </mxGeometry>
        </mxCell>
        <mxCell id="uINMOwZKKyLvstUR0j1v-234" value="" style="sketch=0;aspect=fixed;pointerEvents=1;shadow=0;dashed=0;html=1;strokeColor=none;labelPosition=center;verticalLabelPosition=bottom;verticalAlign=top;align=center;fillColor=#00188D;shape=mxgraph.azure.laptop" vertex="1" parent="1">
          <mxGeometry x="230" y="2100" width="50" height="30" as="geometry" />
        </mxCell>
        <mxCell id="uINMOwZKKyLvstUR0j1v-235" style="edgeStyle=orthogonalEdgeStyle;rounded=0;orthogonalLoop=1;jettySize=auto;html=1;entryX=0.92;entryY=0.5;entryDx=0;entryDy=0;entryPerimeter=0;" edge="1" parent="1" source="uINMOwZKKyLvstUR0j1v-203" target="uINMOwZKKyLvstUR0j1v-234">
          <mxGeometry relative="1" as="geometry">
            <Array as="points">
              <mxPoint x="580" y="1802" />
              <mxPoint x="580" y="2120" />
              <mxPoint x="276" y="2120" />
            </Array>
          </mxGeometry>
        </mxCell>
        <mxCell id="uINMOwZKKyLvstUR0j1v-236" value="&lt;span style=&quot;text-wrap: wrap;&quot;&gt;Guest Devices&lt;/span&gt;&lt;div&gt;&lt;span style=&quot;text-wrap: wrap;&quot;&gt;&lt;br&gt;&lt;/span&gt;&lt;/div&gt;" style="text;html=1;align=center;verticalAlign=middle;resizable=0;points=[];autosize=1;strokeColor=none;fillColor=none;" vertex="1" parent="1">
          <mxGeometry x="205" y="2145" width="100" height="40" as="geometry" />
        </mxCell>
        <mxCell id="uINMOwZKKyLvstUR0j1v-237" style="edgeStyle=orthogonalEdgeStyle;rounded=0;orthogonalLoop=1;jettySize=auto;html=1;entryX=0;entryY=0.5;entryDx=0;entryDy=0;entryPerimeter=0;" edge="1" parent="1" source="uINMOwZKKyLvstUR0j1v-145" target="uINMOwZKKyLvstUR0j1v-234">
          <mxGeometry relative="1" as="geometry" />
        </mxCell>
        <mxCell id="uINMOwZKKyLvstUR0j1v-238" value="" style="endArrow=classic;html=1;rounded=0;exitX=0.5;exitY=0;exitDx=0;exitDy=0;" edge="1" parent="1" source="uINMOwZKKyLvstUR0j1v-144" target="uINMOwZKKyLvstUR0j1v-274">
          <mxGeometry relative="1" as="geometry">
            <mxPoint x="1390" y="740" as="sourcePoint" />
            <mxPoint x="1490" y="740" as="targetPoint" />
          </mxGeometry>
        </mxCell>
        <mxCell id="uINMOwZKKyLvstUR0j1v-239" value="Monitoring and Logging Systems" style="edgeLabel;resizable=0;html=1;;align=center;verticalAlign=middle;" connectable="0" vertex="1" parent="uINMOwZKKyLvstUR0j1v-238">
          <mxGeometry relative="1" as="geometry" />
        </mxCell>
        <mxCell id="uINMOwZKKyLvstUR0j1v-240" value="" style="endArrow=classic;html=1;rounded=0;exitX=0.5;exitY=0;exitDx=0;exitDy=0;entryX=0.567;entryY=0.055;entryDx=0;entryDy=0;entryPerimeter=0;" edge="1" parent="1" source="uINMOwZKKyLvstUR0j1v-144" target="uINMOwZKKyLvstUR0j1v-270">
          <mxGeometry relative="1" as="geometry">
            <mxPoint x="1740" y="560" as="sourcePoint" />
            <mxPoint x="1885" y="230" as="targetPoint" />
          </mxGeometry>
        </mxCell>
        <mxCell id="uINMOwZKKyLvstUR0j1v-241" value="Change Room" style="edgeLabel;resizable=0;html=1;;align=center;verticalAlign=middle;" connectable="0" vertex="1" parent="uINMOwZKKyLvstUR0j1v-240">
          <mxGeometry relative="1" as="geometry" />
        </mxCell>
        <mxCell id="uINMOwZKKyLvstUR0j1v-242" value="" style="endArrow=classic;html=1;rounded=0;entryX=0.493;entryY=0;entryDx=0;entryDy=0;entryPerimeter=0;exitX=0.5;exitY=1;exitDx=0;exitDy=0;" edge="1" parent="1" source="uINMOwZKKyLvstUR0j1v-153" target="uINMOwZKKyLvstUR0j1v-265">
          <mxGeometry relative="1" as="geometry">
            <mxPoint x="2520" y="2260" as="sourcePoint" />
            <mxPoint x="2579" y="2349.9999999999995" as="targetPoint" />
          </mxGeometry>
        </mxCell>
        <mxCell id="uINMOwZKKyLvstUR0j1v-243" value="Inventory Database" style="edgeLabel;resizable=0;html=1;;align=center;verticalAlign=middle;" connectable="0" vertex="1" parent="uINMOwZKKyLvstUR0j1v-242">
          <mxGeometry relative="1" as="geometry" />
        </mxCell>
        <mxCell id="uINMOwZKKyLvstUR0j1v-244" value="" style="endArrow=classic;html=1;rounded=0;exitX=0.5;exitY=1;exitDx=0;exitDy=0;entryX=0.05;entryY=0.425;entryDx=0;entryDy=0;entryPerimeter=0;" edge="1" parent="1" source="uINMOwZKKyLvstUR0j1v-153" target="uINMOwZKKyLvstUR0j1v-264">
          <mxGeometry relative="1" as="geometry">
            <mxPoint x="2600" y="2310" as="sourcePoint" />
            <mxPoint x="2700" y="2310" as="targetPoint" />
          </mxGeometry>
        </mxCell>
        <mxCell id="uINMOwZKKyLvstUR0j1v-245" value="Health Resources" style="edgeLabel;resizable=0;html=1;;align=center;verticalAlign=middle;" connectable="0" vertex="1" parent="uINMOwZKKyLvstUR0j1v-244">
          <mxGeometry relative="1" as="geometry" />
        </mxCell>
        <mxCell id="uINMOwZKKyLvstUR0j1v-246" value="" style="endArrow=classic;html=1;rounded=0;exitX=0.42;exitY=0.971;exitDx=0;exitDy=0;exitPerimeter=0;entryX=0.5;entryY=1;entryDx=0;entryDy=0;" edge="1" parent="1" source="uINMOwZKKyLvstUR0j1v-270" target="uINMOwZKKyLvstUR0j1v-283">
          <mxGeometry relative="1" as="geometry">
            <mxPoint x="1670" y="974.89" as="sourcePoint" />
            <mxPoint x="1770" y="974.89" as="targetPoint" />
          </mxGeometry>
        </mxCell>
        <mxCell id="uINMOwZKKyLvstUR0j1v-247" value="Access Card Control System" style="edgeLabel;resizable=0;html=1;;align=center;verticalAlign=middle;" connectable="0" vertex="1" parent="uINMOwZKKyLvstUR0j1v-246">
          <mxGeometry relative="1" as="geometry" />
        </mxCell>
        <mxCell id="uINMOwZKKyLvstUR0j1v-248" value="" style="endArrow=classic;html=1;rounded=0;" edge="1" parent="1" source="uINMOwZKKyLvstUR0j1v-144" target="uINMOwZKKyLvstUR0j1v-272">
          <mxGeometry relative="1" as="geometry">
            <mxPoint x="1410" y="1260" as="sourcePoint" />
            <mxPoint x="1510" y="1260" as="targetPoint" />
          </mxGeometry>
        </mxCell>
        <mxCell id="uINMOwZKKyLvstUR0j1v-249" value="Climate and Lighting Controls" style="edgeLabel;resizable=0;html=1;;align=center;verticalAlign=middle;" connectable="0" vertex="1" parent="uINMOwZKKyLvstUR0j1v-248">
          <mxGeometry relative="1" as="geometry" />
        </mxCell>
        <mxCell id="uINMOwZKKyLvstUR0j1v-252" value="" style="endArrow=classic;html=1;rounded=0;exitX=0.5;exitY=0;exitDx=0;exitDy=0;entryX=0.528;entryY=0.985;entryDx=0;entryDy=0;entryPerimeter=0;" edge="1" parent="1" source="uINMOwZKKyLvstUR0j1v-144" target="uINMOwZKKyLvstUR0j1v-277">
          <mxGeometry relative="1" as="geometry">
            <mxPoint x="1220" y="850" as="sourcePoint" />
            <mxPoint x="1320" y="850" as="targetPoint" />
          </mxGeometry>
        </mxCell>
        <mxCell id="uINMOwZKKyLvstUR0j1v-253" value="Audio-Visual Displays" style="edgeLabel;resizable=0;html=1;;align=center;verticalAlign=middle;" connectable="0" vertex="1" parent="uINMOwZKKyLvstUR0j1v-252">
          <mxGeometry relative="1" as="geometry" />
        </mxCell>
        <mxCell id="uINMOwZKKyLvstUR0j1v-258" value="" style="endArrow=classic;html=1;rounded=0;exitX=0.5;exitY=1;exitDx=0;exitDy=0;entryX=0.5;entryY=0;entryDx=0;entryDy=0;entryPerimeter=0;" edge="1" parent="1" source="uINMOwZKKyLvstUR0j1v-153" target="uINMOwZKKyLvstUR0j1v-266">
          <mxGeometry relative="1" as="geometry">
            <mxPoint x="2318" y="2319.9999999999995" as="sourcePoint" />
            <mxPoint x="2418" y="2319.9999999999995" as="targetPoint" />
          </mxGeometry>
        </mxCell>
        <mxCell id="uINMOwZKKyLvstUR0j1v-259" value="Point-of-Sale Equipment" style="edgeLabel;resizable=0;html=1;;align=center;verticalAlign=middle;rotation=0;" connectable="0" vertex="1" parent="uINMOwZKKyLvstUR0j1v-258">
          <mxGeometry relative="1" as="geometry" />
        </mxCell>
        <mxCell id="uINMOwZKKyLvstUR0j1v-264" value="" style="verticalLabelPosition=bottom;aspect=fixed;html=1;shape=mxgraph.salesforce.health;" vertex="1" parent="1">
          <mxGeometry x="2708" y="2300" width="60" height="50.4" as="geometry" />
        </mxCell>
        <mxCell id="uINMOwZKKyLvstUR0j1v-265" value="" style="sketch=0;outlineConnect=0;fontColor=#232F3E;gradientColor=none;fillColor=#C925D1;strokeColor=none;dashed=0;verticalLabelPosition=bottom;verticalAlign=top;align=center;html=1;fontSize=12;fontStyle=0;aspect=fixed;pointerEvents=1;shape=mxgraph.aws4.dynamodb_standard_infrequent_access_table_class;" vertex="1" parent="1">
          <mxGeometry x="2476.5" y="2420" width="75" height="78" as="geometry" />
        </mxCell>
        <mxCell id="uINMOwZKKyLvstUR0j1v-266" value="" style="sketch=0;points=[[0,0,0],[0.25,0,0],[0.5,0,0],[0.75,0,0],[1,0,0],[0,1,0],[0.25,1,0],[0.5,1,0],[0.75,1,0],[1,1,0],[0,0.25,0],[0,0.5,0],[0,0.75,0],[1,0.25,0],[1,0.5,0],[1,0.75,0]];outlineConnect=0;fontColor=#232F3E;fillColor=#01A88D;strokeColor=#ffffff;dashed=0;verticalLabelPosition=bottom;verticalAlign=top;align=center;html=1;fontSize=12;fontStyle=0;aspect=fixed;shape=mxgraph.aws4.resourceIcon;resIcon=mxgraph.aws4.lookout_for_equipment;" vertex="1" parent="1">
          <mxGeometry x="2220" y="2380" width="78" height="78" as="geometry" />
        </mxCell>
        <mxCell id="uINMOwZKKyLvstUR0j1v-270" value="" style="verticalLabelPosition=bottom;html=1;verticalAlign=top;align=center;shape=mxgraph.floorplan.room;fillColor=#dae8fc;strokeColor=#6c8ebf;rotation=-180;" vertex="1" parent="1">
          <mxGeometry x="1588.5" y="1058.5" width="71.5" height="51.5" as="geometry" />
        </mxCell>
        <mxCell id="uINMOwZKKyLvstUR0j1v-272" value="" style="image;aspect=fixed;html=1;points=[];align=center;fontSize=12;image=img/lib/azure2/general/Controls.svg;" vertex="1" parent="1">
          <mxGeometry x="1380" y="1090" width="56.00000000000001" height="69" as="geometry" />
        </mxCell>
        <mxCell id="uINMOwZKKyLvstUR0j1v-274" value="&lt;div&gt;&lt;br&gt;&lt;/div&gt;&lt;div&gt;&lt;br&gt;&lt;/div&gt;" style="sketch=0;outlineConnect=0;strokeColor=#6c8ebf;fillColor=#dae8fc;dashed=0;verticalLabelPosition=bottom;verticalAlign=top;align=center;html=1;fontSize=12;fontStyle=0;aspect=fixed;shape=mxgraph.aws4.resourceIcon;resIcon=mxgraph.aws4.monitoring;" vertex="1" parent="1">
          <mxGeometry x="1030" y="1190" width="60" height="60" as="geometry" />
        </mxCell>
        <mxCell id="uINMOwZKKyLvstUR0j1v-277" value="" style="html=1;verticalLabelPosition=bottom;align=center;labelBackgroundColor=#ffffff;verticalAlign=top;strokeWidth=2;strokeColor=#0080F0;shadow=0;dashed=0;shape=mxgraph.ios7.icons.monitor;" vertex="1" parent="1">
          <mxGeometry x="1160" y="1090" width="47.69" height="31" as="geometry" />
        </mxCell>
        <mxCell id="uINMOwZKKyLvstUR0j1v-278" value="" style="shape=mxgraph.signs.travel.locker;html=1;pointerEvents=1;fillColor=#000000;strokeColor=none;verticalLabelPosition=bottom;verticalAlign=top;align=center;" vertex="1" parent="1">
          <mxGeometry x="1589.25" y="711" width="70" height="89" as="geometry" />
        </mxCell>
        <mxCell id="uINMOwZKKyLvstUR0j1v-281" value="" style="shape=image;verticalLabelPosition=bottom;verticalAlign=top;imageAspect=0;aspect=fixed;image=data:image/avif,AAAAHGZ0eXBhdmlmAAAAAGF2aWZtaWYxbWlhZgAAAOptZXRhAAAAAAAAACFoZGxyAAAAAAAAAABwaWN0AAAAAAAAAAAAAAAAAAAAAA5waXRtAAAAAAABAAAAImlsb2MAAAAAREAAAQABAAAAAAEOAAEAAAAAAAAQ1wAAACNpaW5mAAAAAAABAAAAFWluZmUCAAAAAAEAAGF2MDEAAAAAamlwcnAAAABLaXBjbwAAABNjb2xybmNseAACAAIABoAAAAAMYXYxQ4EEDAAAAAAUaXNwZQAAAAAAAAJyAAACcgAAABBwaXhpAAAAAAMICAgAAAAXaXBtYQAAAAAAAAABAAEEgYIDhAAAEN9tZGF0EgAKChkmZxnHggQEDQgyxiERQAEEEEFA9LrNysSEHifE18rfpbT0B2Qzr24PlmbNcCAcKBixgKHQVlxntWwp9AkuXAJKiG61a+9KComEb/QdOxK3dwNV/ezzVJ7R+n2cOGvAQRcNp0gRCCUFZyydkDg6OXhf14ZoKeZ6W1RuPq1+lW63j5s99G4PzLbW0b/B/a1OZaHuyLbe6fvV/1JHjZjLVnRjaq0ZCokdn/DQ5+3iFgUEghaNiUudZrUYf+7K9NL1n3vMV563y7gwQA0MJKlI+i2OgTiPR2joVT7dHPK0Sn938xIh7GxrwVO2EMvCz/slExVhjENprrRxaKyScIJ4p55NH/QLG1MFlFCiUIc6aa3zKg679B8DyeL8xVimxCB9oHtXVnC5EDrUhDNg8yh/PC4lvz/8fmCumGkkTtEW3lSWqMZG57cl0XNzGYVWXhPSdT56BCED/6plgKlHuGiBjWChGlsvpoMfCybGb0OyKIf01rqCvsVT10RtrnxRjOgJpeEQali89LhRn1g6MO0xng8DUgIeydJhZXJC/2FeWhgFln2xS4nSDkzB4xlFN6uq9R0q1fK21hIAAJ7vrJ2VkILLMt8eCTbHs+8ayVT9z2QG5uqNnmcHDXCb4KvZLG2471hAx/Bas3OvFuF49zU0o53QHSomNMSHNNMSW551VORDSZFSGLl7/gDHtnguF27011RASsV5cOzI2KIAXaNUXAZU/HN/axzr0PVXpKPK9plt/6iOYxwBnQRWahELjcUhhFbcvDVVQFrX+3I2Cpti6sSOiVFrtKaDoaqJa4wfKjqGOxDOyguU46Zw+UWlB0IXIhkMvVNvO4ezfKr590L236OkvDrtocir15o7O1eT2WhW7iO996b9G77T7ekDYeG5VfE1k5OuPjgVQfFt55vBCrvqYpzENvTtXKoJPL8LHGakHcX7ywGzahSJ8Zx95cfsFFfi53OqfNkAvJUqg1xfF1v5PUOgqK+qgwcFKpAwMPUM9hIJlMOOYdxizGquEKNKeJlXUwzXcfbwbw1OwLllQau28j2XD3YirHe4hex82AOFGmBZTCNAPYJclTVncbn5S3FU0036xRsPiHNkOvl2J1DTA3tjStXTmOK9JStv5+AqGEs6+bMkWj7RDy5QR6QyB8h+m8KP2NXtQTEvn6yvOur3JGFpTtdznuM/eOS9AVvX1O8WuAJ2Ox9JkkCMH3EarHmWgMSEs8hnfJyhx97XqulszaGnNZEybEtjNfU7Yhuy1gdY/7p8UMwN0sQ2YTe/C1fToPBZd0RHoWLlWf68W1SmjvDKfGzR/uKdu1xUN5YvVvBQjmDnKyV6Iks4arCPvph27Ef+Vwtqqmf8JWzwfoMZnCoRhk50HyWhKz9sXfUcvtm+ybRopCY6uQQLc6GjFhBA44kkt2H7CzVKtRdo4uMAlo7lKmI70Krp6zBEYFvPIwElEkvBc9GjT5fadAwe6hNSYbOrAPUi84cwD6Xxo5dYZ7qWk31yTpqaGgmC2njnsExzi2HTmGoThOdVbGU5x5jg55hdgtpqWul93qQYm3kgUNqWriupE1M/E1Zazg5Sypudl9QvJKpXuGQvmyEhWXnyYpMS+4XGLRkOPWekCNRFfphEsRu2IJpF/Wivyv3BvVAqpC0yoDzm0BnpIVugFu7kQcj3rD9ZUrAgVFBZLmDfkuyunf9IG2JL0d65H8AEbMQaR0Ay6UWzjadZGyrVvedSEaV9XX1X2v9HhHTK+IWiGyUiploDkwFBx200H8dncQZQTmsxhFCqOQBM4s1ddZW9bh23fbk6iQ7EUW4Bi+tmD9Zo/m38/pFbs6m37zalVRRNTIJnD0ghvBEyJh3MWENA3NH9kLl6flQHxTIoqiHSZHHRD//ittzE+CMWfKl8jkJMe/HJ58bboQDMVbFZ7bDvtby8D0LyJg8yZi+QVYc0+FTyTGkeWIolSXHjCRVtHEAccZ6UkXu6sUVB5S2GK4Ue+TXbcA8gKKCEWPEdi+v8bku2niuN5U5L+2/FB29YcufbSVvUSOxPX7U1xJRrrFG4UcBT0v6e1wRg95bYAlBqw3j9CIk7nOMP8y4spGbshvFjDFh4iYAZXVSp9l2Bv77B8BPBLacn4TW+/bKcqRvvW6UMljyt+mBsTulVaxaumPZdJlz5A0NczC6J/mnSYXlXZeM0QcS9hS3Ry5GuIdlp3BhY6Jq5Gu0AvSU9nwa5agbosAysOQxpYZFaeyVtzFSQT2R2x+m2uKrKVodhZHuUFaf0GcdzInUuA4ZyjiGeYuaxWJD7GrEidjtU9kC2wJrtPAvhQcn+xGwF5oQRQdbevrUgAABrC7RwFRFxyAMusD9LbsS0sjFaGBsckX/rBQSpib4eFibqqmnTRQJhcH5S3t02nc+7uFj8Dfs6SHWMObtx9SNWZKreu7E6Q/VTkDRnX8G25k12wQNish1oXsUDwqR1/wAK3+OhA48Kjn2PYKBxBGxNCCZ+YjPAmgLdtQDoaWbzlc7VWdjW8PwqBXbgBpAAABDXSbv5iK7/4rdWTBN8c/j2Lo+umeDyI884KvjTx0LIDSkOLq6hgH0PYBR78fUvirXw9GITRrSzhpZGTzP+iMVmuLNprZS7/DcHRWTHdxyHJL5emrReXd2ojFXCzS9SmbTdJ8BHP/LxdcOZ0Botv3bjnVoM36+DgP56ilrdjTkJk319oV2q1Wuk7+hdS33KqtOS2eSn+hbqP1IjaSR3xA9p/AhiSGmshGUomwCs7eweqsJ2e6T3quwyowV1rIq6QCfNqI3DC2Kn/biQc01fdhrBpFAUUkda+HC1t/kueAlbhqNINWmyssTyUj+yFSnEMRfv+PmIsUgZs1IXj7UOzjbsABFWXQGZ5kcrC20hKeviSBxbrR40Xua84KeN2cns/sP8mVW5GD+yTlAftRH2ePwj2vnu+AtJuDTVGYm+1hPmN/2XPGnOEX+zjDu7t0Za2uneXRPdz+fVZEc3c4gQn1j1YOBsR6j47eT+EUTGNZo9xIRhCcKka4/QP9tHmqHOzvu5CI/FQp4MYwX2kDCHHbJtv34bDG+L0ksnZ8HbjjHnT+yOAV0mcmrNkEhYQheXKZxwqvhfsGEuTNhW3vPanjyYXqdErhzg9A6jv88FjGQepwI5xDUYvoNTcNsSEK7i8FpUUvNUKhuYuZPLFnsadpJ9ACvpOltqHnUq+kCzm1G4WB9A7yNBDcwYbj2FEYCe+wmbKhYhewP7joFAd5eKPbEtLY9QDxvC2gq91sj3Kfr0qnCKnWtmxPjuKDvr//vWn3anmHulCf0m5Z42O+qQa8Dfl1Yq6ryyQuYFhuGruJi4KEddAyTdz8k5S3dZLoBJOAnk53lEvaIs1mQXserHfzfoYcabmYE8y/PeKGPXYUQsb4/gPr9jTsQzgMjE87e8K0jaKpjhl11iTl7M9sv/GqrIJ0ZelPo/DN/+8WXDx6LwcJWTKLdtQWQdh399j6VyV4xuYlm/LLNSTsXUu6Ig+qxHzDM2Qh8RerKPhGwC+1CC2eLQUVBfApt9hxoJloa62/n3Hi1OiUE+qR3+K8EHQfEjgcfRCbI0RSOw8IHXGDCPYM8HX6f5GSCHpZYbp9lL4Jdbt0Q113TpRjpjPDMCMLw7xLcVyyOpkytA7FNOStmjI1qRRZa4frrA1oK2CWT9OaqALLgfF0chghwXDnrOhiOy7t44cYIX1QnSlTsnsVyr9qSVREoZqa3j5NQfOPZcXRYD21hJqT3v8Am0uiJzqppHT5PvGazyjZyu31hznSszHeCeyzgaGV/64B31xwR6i41Jw4I0qdHDsa2WEUI+64jZ8Dyst8+sQnyTKLkKRJgwC5Ybr+GyBBHegOUnmr6YyvteBhph7wUx4+2lAyeQchS9uWUAMR/pbMqp4e8kj+fmsIPbxfTt9a9T9m7MyrU+iC450kTd3Md4+x+56aFQxHxPTQrxR2uCl6Txg9IjkqKhhEoekRAprZvmSRWRndxi9vHBnUqwczWqHEcgntFVpOR0X9SwPZrDIJY8vqnMx+p6PeRpKsmB7ZP4KBpZfr1I8FhxU92GZa7c6o0Lk3ItNb3FpWiaITEcSu/HhV8PwYM5Ls548Zr7jLW3VaSwMxWqs07AC3J25ikFL2toYu0m5bWGLEprJSfhH1dgwXdXr0P9AD5F7ovn8WW9RMO7Kuv7v+XqXjmzV2SVTCT45E2njJXPzm4WTtTYINd2i4naAmodFdJgCLkPXp9bEDn7PHqXG9YBgAqiB0rpcQWwxHKj+rINpHzWJpS/XQYgCBL1SgfEUx9s28ekIMkc4MswA4s0D3fODcwqEWUS4vAF2RcNrongkPal3FMvN3nNFVOKGt1B2uZWnJmelcXAz5KHkVtEw7WKSRD0AQ/E+nPn3yNdFr/RS4iDPTlPjKn4r9vlEdlDtOIcBLb9ysqxUuGcv/Gfhf4K/yuLTrdwe63bwgyJTqAz1SgIWGg1NELLR0hDo45ERt2nXZ1S+RiChoaKAZNI4qEWjjDwEUrjQjPlxrwsNLkqbjKUpDSMS5Yju/WnJsLd73By0kN7po7YSwU6lywJTUm/Khaocfv1JhYM4xoHzEYffdc3ItV6L26Xfd+88bYBxChpXTRs38uebEesnpgk3CH2jFpYf/ReKTv0HDM6h7EaGtmgNV6osQbp4c1JDCi4OujEOy1wkKY17gMsmmoXRwZDEg0P1KaDQc2ISffrlzZToQEc9IOLnnYHocmMZH7/2hsdTLEGyNkBpgs5MRzD44CSHqWWJC6t3amTIr4aPZwdjyWTk2rFcyjhcCfebIw+tCLx7FeA0YlqtliazD4WeXqnfiE97XWnrHtc9p8anH+uPO6DlrNNql+26SPsKhZxTgTKYH4Aevsi0ZFLY1V+ZEHbJCtYmqndMjVp6IkVfWuouGCUmLSgqFyi3r3PwvaL7xyD5m2W3G2ekq5BO7IlOZiRovYPzhHzeM5QX+3F/cJWMy/I4UJDn8eihiaKkRTBP3hxRQytxEme+J/rLx36jdUO2f4w+jJ2YwfoLdNA+Jdrw76OnCapb+BR1VWftbqYeO5dzbchSrRYJHKSrpQnsIz1ihDe2BgaSkaOLHCm/FMUpGq1jUJ8A3FByfBDDiSfg9wDQaBh9uvnGvSeJUBV3BZFHxiM5xYrcNC8dTEQikbx4Ff1kDNuvBopm81+9o2jwjK1jI/cgzIhf+GFOprTQFCoM3rfIZr8+Debuc95KTc5Q/ygaaw5xGM29RN1+ulS4eCu39knA1voaB9wZ+dnMCrvsxjao8IYy6aOabp7KlsyhlM5mwh0WZR9h9i7oOFvv0LNgkgD179XZJk4pjD/aVFj4dPsPUm7jBPY7b3uElly4ROx4WIHlUkxiA3Yrg29g2iW/DWLjE8vDvZoRbPptuur82HVsSR+UsBCwsEnZHZhZzhT/GavWU6Fy7dQVDodXJUzCfAmhw9M1Wt5r2d8jQGsceyEbLQxQ2KcLnRWyrlwC7LStOjw6MoIId8kBF2unW6ug5tvdJalof7M3T7Qox95FGezn7JQX7AIwMSTyW1v/UZowKdrn+UwuhQ31qi7cMhxYTE5kFOYiPWq+Quo9A2cZ3n5fz1aKWVhvdsFg2mH7t8euajm27nXC8DxUvyad3sJZW88INdIw3HPhdp53zVkmG5AnRsMr6uBIBrLKwlLTT1ZoWrpjpInEQckTucxZJZCnxuXdB1nG5AujFMzRXGaED6pGC5kdyFcuEuA" vertex="1" parent="1">
          <mxGeometry x="1380" y="733" width="76" height="76" as="geometry" />
        </mxCell>
        <mxCell id="uINMOwZKKyLvstUR0j1v-283" value="" style="shape=image;verticalLabelPosition=bottom;verticalAlign=top;imageAspect=0;aspect=fixed;image=data:image/png,iVBORw0KGgoAAAANSUhEUgAAA1wAAAQkCAYAAABpMx/mAACAAElEQVR42uzdeeBW06L4/9s8KU0SCiWkZMqQMiQhKQqRoTJVIvOQ4SSJI4XKcCqReUpEXCHCiYtERQdNJMrQiOo2r5+9v/ecn+OY0ufzefbez+uP1x/33HvuOfZaz7PW+7OfvfZ//e///m8AAACg4P2XiwAAACC4AAAABBcAAACCCwAAQHABAAAILgAAAAQXAACA4AIAABBcAAAACC4AAADBBQAAILgAAAAQXAAAAIILAABAcAEAACC4AAAABBcAAIDgAgAAQHABAAAILgAAAMEFAACA4AIAABBcAAAAggsAAADBBQAAILgAAAAEFwAAAIILAABAcAEAAAguAAAABBcAAIDgAgAAEFwAAAAILgAAAMEFAAAguAAAABBcAAAAggsAAEBwAQAAILgAgDy1cOHCMG3atPDcc8+Fu+66K/Tp0yf06NEjnHbaaaFDhw7hsMMOCwcccEDYa6+9Qt26dUPNmjVDlSpV/kOZMmXCf/3Xf/2bypUrx/+7GjVqxP/eSKNGjULjxo1jLVu2DEcddVTo2LFj6NatW7j88stDv379wuDBg8M999wTRo0aFV566aXw1ltvhc8++yysWLHCmIHgAgBIljVr1oQPP/wwPProo+HKK68MRx99dKhXr14oW7bsf0RS0pUvXz5sv/32Yb/99gtt2rQJp59+erjiiivCoEGDwpNPPhkmT54cR6RxB8EFAFDgli1bFt8V+utf/xrfOYruKJUqVSp1YbWpNttss9CwYcM4ys4999wwYMCAMHbs2PhOmXkCggsA4HetXr06vPPOO+H2228PnTp1CvXr1w/FihXLu7jaWJtvvnn8M8nop5PDhg0Lb775Zli+fLk5BYILAMhnP/zwQxg3blzo1atX2H///X/xuSn+nJIlS8Y/U7z44ovDmDFjwrfffmvOgeACAPIlsJo0aRJHgTgqOtEdw7POOivcf//9Yf78+eYkCC4AIO2iEwNvvPHGcOCBBwqshImeh7v00kvD+PHjw6pVq8xXEFwAQNJFR50/++yz4eyzzw7bbrutsEnRaYmtW7cOQ4YMCbNmzTKXQXABAEmxZMmSMHLkyHjDnsaj2fnlu1/RO8yiO5TmOAguAKCILV26NH4WKDqmvHTp0iIlw6L3hJ1//vlh4sSJYf369eY/CC4AoDB8//334b777gtHHXWUyMpTtWrVip/7+uCDD3wmQHABAAVh8uTJoVu3bvHLd0UH/9SgQYPQv3//sGDBAp8TEFwAwMb44osvwvXXXx/q1asnLvhNJUqUCK1atQoPP/xwWLlypc8PCC4A4JdEz+c8/fTT8eY52kSLCTZWlSpVwkUXXRQ++eQTnykEl4sAAES+++67MHjw4FCnTh3RQIFp3LhxfLDKmjVrfM4QXABA/vnwww9D9+7dQ4UKFQQChWarrbYKvXv3jn+m6nOH4AIAMu+FF14ILVq0EAMUqVKlSoXOnTt7txeCCwDIng0bNoSxY8eGfffd1+afnGvWrFk8H6N56fOJ4AIAUn0QxqhRo+IjvG30SZrdd9/dc14ILgAgfaIN7F133RXq1q1rY0/iRfP03nvvDWvXrvX5RXABAMn+6WB0R2vHHXe0kSd1tt9++zB8+HDhheACAJJn/PjxYa+99rJxJ/WiVxQILwQXAJAIb7zxRjjwwANt1Mmc+vXrhyeeeMLhGgguAKDozZkzJ7Rr187GnMxr2rRpeOutt3zuEVwAQOFbsWJF6NOnTyhbtqzNOHmlTZs2Yfbs2b4HEFwAQOGI3l203Xbb2XyT1y9Q7tatW1i4cKHvBAQXAFAwpk6dGg466CAbbvg/1apVi199EL1rzncEggsA+FNWrlwZ/3ww+qu+TTb8p+hkznfeecf3BYILANg4r7/+eth5551tquF3FC9ePP6Z4bJly3x3ILgAgN+2dOnSePNYrFgxm2nYCDVr1gz333+/Y+QRXADAL3v88cfDlltuafOcA5UrV45fuBv9RK1x48bh0EMPDS1btgytW7cOHTp0iJ1xxhlxDJ999tmhV69e4bzzzov/58g//2/atm0b//si++yzT/z/LzropEKFCq5zETnssMPC3LlzfacguACA/2fx4sXh+OOPt1kuQCVLlgy1a9cOzZo1CyeccEK46KKLwqBBg8Kjjz4aXnjhhfi5n1mzZoVFixYV2cEL0TN5X3zxRZgyZUp48cUXw8MPPxyGDBkSrrnmmjjaosjbfvvtQ4kSJYzhJqpYsWIYNmyYu10ILgDIdy+99FLYZpttbJL/hOhdZLvvvnscVL179w6PPPJI/ILc+fPnh3Xr1qV2TqxevTrMmDEjPP/88+H2228PF154YXznrH79+nFIGvs/LrrT+Nlnn/muQXABQD6KNtKe1fp90R2fBg0ahM6dO4dbb701jBs3Lnz66ad5eSR4dJcsiso777wz/onjHnvs4RTLP3C3a+jQoe52IbgAIF9MmzYt7LrrrjbDvyAK0J122imcfPLJcVxFpzX+8MMP5s1vWLVqVZg0aVL8E7quXbvGd8LMpV++2/Xll1+aMwguAMiq6C/sgwcPDmXKlLEB/smR3tHPAi+44ILw9NNPhyVLlpgrBSAKi+jEvuiuoJ+s/v+qV68ennnmGXMEwQUAWfPdd9+F4447zh2sYsXiu3vRCX9PPvlkfGiF+VH4Pv7443DHHXeE9u3bhypVquT9HDz33HPNCwQXAGTFP/7xj/gZpHx+Bis6LTC6uzdv3jxzIseiZ98mTpwYzj///LDVVlvl7byMPpPRz3vNCQQXAKTYPffcE8qVK5d3m9noLsopp5wSRo0aFd/dMxeSKTrN8dVXXw3nnHNO/OLgfJun5cuXD8OHDzcXEFwAkDYrVqwIp512Wl5tXjfbbLP4maHoHVNr1641D1J45+u1114LPXv2zLs7X506dYpPgDQPEFwAkJIDC/bee++8OfQi+rlgdJfAaYLZiq/x48eHDh065M2LmKPDW+bMmWP8EVwAkGT/8z//kxc/zYo2p4MGDQpfffWVcc+46J1nV155Zdhyyy0zP6+rVasW36E17gguAEigRx99NNPPa0V3Otq0aRPf+TDe+fm819ixY+P3WWX5hd3RP1uvXr3y8sXaCC4ASOzPr6INWlY3oNHzPH369AkLFiww3sRmzJgRevToEcqWLZvZeX/ssceG5cuXG28EFwDk0vfffx/atm2byQ3nvvvuG9+1W7NmjbHmF0URfumll8YHpmTxM9C4ceMwf/58Y43gAoBciJ5f2muvvTK3yYwOwYh+OmaM+aOio//79+8fqlatmrnPw9Zbbx3ee+8944zgAoCiNHv27FCvXr3MhdYrr7xifPnTopMqoxdcR5GStVcePPvss8YYwQUAReGtt94K1atXz8wBAdGzKv6CT0GK3ml1yy23xC/Azkp0lSxZMgwdOtT4IrgAoDBFf+UuX758JjaQhxxySJg8ebJxpdAsXrw4XHDBBaFUqVKZCa/LLrssbNiwwfgiuACgoN17772Z2DjWr18/jBo1yphSZGbOnBm/RDkrx8l36tQprF271tgiuACgoNx0002ZePj/7rvvjt+nZEzJhddffz0++S8L0XX88ceH1atXG1cEFwBsqmuvvTbVG8PoZcx9+/YNK1asMJ7kXPTeugceeCDUqlUr9dF1xBFHeFcXggsANkXv3r1T/5zWxx9/bCxJnOgPANELw0uUKJH699UtWrTImCK4AGBjRA/FRw/7p/nng48//rixJPHeeOONsMsuu6Q6unbffffwzTffGE8EFwD80djq2bNnKjd+xYsXD926dYtfRGssSYs1a9bEL04uU6ZMaqOrUaNGYeHChcYTwQUAv/d8yWmnnZbaDZ9j3kmzDz74IOy3336pja499tgjPgrfWCK4AOBXYqtz586pvKt16aWXhlWrVhlHUi86RXPQoEGhQoUKqYyuvfbaKyxZssRYCi4XAQB+HltdunRJ3eZuu+22CxMmTDCGZM6MGTPCnnvumcroiv57iy7B5UIAQMpjK/rpo2e1yLLorm10eE0aX5jcpEkTn0/BBQCkMbaqV68ennrqKeNH3nj22WfjeZ+26GrevLmf+gouABBbadrANW7cOHz66afGj7zz9ddfxy8aTlt0HXPMMfFzacZQcAGA2Eq46Lj31atXGz/yVvTKhsGDB4dSpUql6rPbvXt34ye4ACC/YitNR79XrFgxPPbYY8YO/k/0suRtttkmVdHVr18/Yye4ACA//kJ++umnp2aT1rBhw/Dxxx8bO/iZ+fPnp+qdXdHBHyNGjDB2ggsAsu3yyy9PzQatQ4cOYfny5cYNfkOnTp1S85kuWbJkfACIcRNcAJBJd955Z2o2Zueff37800fjBr9v+PDhccyk5SfC06dPN26CCwCyZfTo0aF48eKJ34yVLl063HfffcYMNtLzzz8fNt9881RE10477RSWLl1q3AQXAGTDjBkzQqVKlRK/CatatWp49dVXjVkRiV5K+9FHH4UJEyaEBx98MAwcODBceOGFoWvXrvHPOdu1axdatmwZmjZtGh/H/0+HHHJI/K9HjjvuuNC5c+dw0UUXhRtuuCHcfffd4emnn44Pdfj888/dpSxiM2fODLvssksqouuwww5zXLzgAoD0i56Big6eSMNfvKPNojErnMMVxo8fHx8nHh2t36xZs1ClSpUiGdcyZcrEAdC2bds4yu64447w2muvxbFnbApHdOfo8MMPT0V0XXHFFcZMcAFAukXPQiV90xUFwOLFi41XAYjuGEyZMiXcdttt4YQTTghbbbVVYk+siyK7Y8eOYcCAAeGVV14JP/zwgzEsIGvWrAmnnnpqKk4u9MoHwQUAqRU9mJ70B+lbtGhho72JvvzyyzB06NBw1FFHpeKno78meplvFN+9e/eOf+ZobDdN9AqIyy67LPHjXq5cufDuu+8aM8EFAOkTbcCTfuz76tWrjdWf8P7774e+ffvGz1RFdwnSGlm/txE/9NBDw6233ho+++wz4/4n3XjjjYmfI9tvv31YsmSJ8RJcAJCuux4lSpRI7AYrenfQ2rVrjdVG+OKLL+LnsHbbbbdMBtbvadCgQejTp0+YPHmy+bCR7r///sTf7T722GONleACgPQYMmRIYjdWl1xySfxzJ+P0+6LDJUaOHBmaN2+eimP9i/KQlX79+oV58+aZJ39QdHpk2bJlEz2uI0aMMFaCCwDSoUuXLoncUEWbZOPz+2bNmhV69eoVKleuLLB+QxSh0fH00R2cFStWmDu/4/XXX0/0u7o222yz+HUCxkpwAUDi7bfffonbTF133XXG5jdE76z67//+73DEEUdk9rmswhQddR+9R2zOnDnm02+YOnVqqFGjRmLH8ZhjjjFOggsAki963iVJm6irr77auPyK6OCQ6KdUO+64o3AqANGzi8cff3x48803za9f8eGHH4YtttgisWMY/eHBOAkuAEi0HXbYITGbp+hoamPyn1atWhXuvPPOsO222wqlQtKkSZMwatSo+O6hOffvpk2bFqpXr57IcYvu0BsjwQUAibbXXnslYuMUvXjZePy76FmjQYMGha233loUFZGGDRuGJ5980mEtv/DzwmrVqiVyzF577TVjJLgAILkOO+ywnG+YzjjjDBvcnz2jFd1tid45JIJyo1GjRvEYmI/Jj67u3bsbH8EFAMl18skn53SzdOaZZ/oZ10+MGzcub9+flUQHHHBAeOONN8zN//Pee+/Fh44kaYxq1qxpbAQXACTXLbfcktM7W2Lr/797EB1bLnKSJzoJMnoB91dffWWu/uj9998PVatWTdQYGRvBBQCJNWXKFLGVQ8uXL4/fo1WyZElxk3AVKlQIffr0iU+LzPd5O2nSpES9p2vChAm+zwUXACT3eaGifteO2Pp/HnvsMQdipPRgDQc1/G/4+9//HsqWLZuIMYkOOvF9LrgAILGiFw2LraIzc+bMRBxWwqb9zDA6WTM6STKf5/JTTz0Vv88s1+PxwAMP+C4XXACQXMuWLSuSnwfle2xFJzEOHz48/mmaaMmGunXrhtdffz2vvz+iOe0OF4ILAH7HgAEDCnVD1K1bt7yOrblz54YWLVqIlAwqXrx4fLcrekF1vs7v6Nm2XI7BK6+84ntccAFA8p/lat26daH89Kpv3755fW1HjBgRKlWqJE4ybo899gizZ8/O23kevQ8rV9c+OjnR97jgAoDE++GHH0Lz5s0LbBMUPVB/33335e31XLJkSTjmmGPESB6pXLlyGDt2bF7O93Xr1oX27dvn5LovWLDAd7jgAoD06NGjxyZvgHbcccf4yPl8vYbvvvtu/HyPCMnfAzXWrl2bl3P/wAMPLNLrXatWLd/bggsA0ic6CKBp06YbvfkpV65cuOqqq+K7Zfl6MMatt94aSpcuLT7y3KGHHhoWLlyYd5+BpUuXhl133bXIrvM555zjO1twAUB6Rc9GXH/99eGQQw4JZcqU+cUNT6lSpeLnV/7617+G+fPn5+21ik579BNCfqpevXph1qxZefdZiH7it8MOOxTJgSXTpk3zXS24ACA7or/Yf/zxx2HixIlh8uTJ4aOPPgqrV6/O++syZ86c0KBBA5HBf6hatWr8ecm3z8Rnn30W/9yvMK9t165dfS8LLgAg6954441Qo0YNccFvHiAzatSovPtsfPLJJ4X22WjUqFFYvny57yDBBQBkWXTku+e1+CNKlCgR7rzzzrz7jHzwwQdh6623LtBrufPOOzuZUHABAFk/HOOKK64QEmy0/v37593nZd68eQV2kEazZs3y8jASwQUA5I3ofUPdunUTD/xpvXr1ystDZaKTGzflDuGVV17pmVHBBQBkWbTZO/HEE0UDm+zyyy/Pu89P9G6yPn36hJIlS27UtYreaRc9K+k7SHABABm2YsWK0KpVq7x65ija6Eb/zN27dw+9e/cOt912W3jkkUfiAyCef/75MH78+H8ZM2ZM/K9H7rvvvjB8+PDY4MGD45/RRT/BjF6qfcopp4Q2bdqE/fffP9SuXTuvn4G77LLL8vKz9OGHH4YjjjjiD53weMMNNzgcQ3ABAPlgU34OlQbRaXIdO3YMQ4YMCe+++25YtWpVkV3br7/+On7nWxRr0XvfOnfuHPbbb79Qvnz5zEdXFLL5+pmK3qEV/bwyGustttgiVKlSJey0007xPHzggQfCypUrffcILgAg69asWRPatm2byc1+w4YNwzXXXBPeeeedsH79+kT+BG3KlCnxnbIzzjgj1KlTJ5PjEN3F8VlDcAEAeXlARtae2YqO6I6eH5o6dWoqxyR6t1P0M8Xop46lSpXKzLjceuutPnMILgAgf0RHv0d3VbKyoW/evHn8k73ojl1Wxig6Hvz2228PTZo0Sf34FCtWLP4Znc8eggsAyAv9+vVL/Sa+YsWK4ZxzzgnTp0/P/Hh99NFHoWvXrqFs2bKpHa/ojt24ceN8/hBcAEC2PfHEE/Edh7Ru3CtVqhT+8pe/hEWLFuXd2H3zzTfxc2nRAQxpHLvNNtssTJo0yecQwQUAZNPkyZNTezpe5cqV4/ccLVmyJO/HcfHixeHiiy8OZcqUSeWJkXPnzvV5RHABANkSHU++zTbbpG6DHv2M7sorrwzLli0zjj/z6aefpvLgk9133z388MMPxhDBBQBk55CMo446KnUb8+glwnPmzDGGvyN6UfN2222XqrFt165dIo/rB8EFAGy06IW/adqM77rrruHll182dhvh+++/Dz179gzFixdPzTj37dvX2CG4AIB0+8c//hHKlSuXig14yZIlQ69evcLq1auN3Z/0yiuvhJo1a6ZivKM4fOmll4wbggsASKfovVS77bZbKjbfDRs2jA/1MG6bbv78+fG7ydIw7lEcRs8XGjcEFwCQOoMGDUrFXY7LLrvMeBWwdevWxcfnp+EVAIcffnj8nKFxQ3ABAKkRvbMpOko96e/UGjNmjPEqRKNGjUrFqwCGDx9uvBBcAEB6nHnmmYneYEc/dZw9e7axKgJvv/124p/riuL7888/N14ILgAg+T744INEn1Z38sknhxUrVhirIjRv3rz4ObkkR1fr1q2NFYILAEi+zp07J3ZTHZ1CaIxyY8mSJWH//fdPdHRF7xQzVgguACCxohPqSpcunbiNdHR4w80332yMcmz58uXxIRVJDa769evHp2saKwQXAJBIV1xxReI20aVKlQoPPfSQ8UmIVatWhXbt2iU2uoYNG2acEFwAQPJER2vXqFEjcbE1duxY45Mw0V2kY489NpHBtcMOO8TH2hsnBBcAkLjDMpK0cS5RokR47LHHjE2Co+uYY45JZHQ98sgjxgjBBQAky5AhQxL1zNaIESOMS8KtXr06tGnTJnHBddBBBxkfBBcAkCwXX3xxYjbMAwcONCYpeqarVatWiTtk5bPPPjM+CC4AIDm6du2aiM1yz549jUfKRO9Fa9asWaKi66abbjI2CC4AIDm6dOmS803ywQcf7FjvlIre09WoUaPEBNcRRxxhXBBcAEBy9O7dO6cb5G233TZ8++23xiLFFixYEOrWrZuI4KpYsWJYu3atcUFwAQDJ8OCDD+Zsc1yuXLnw3nvvGYcMmD17dqhZs2YiostzXAguACBRG+VcbYyj2DMG2TFp0qRQvnz5nAfXxIkTjQeCCwBIjn333bfIN8UXXHCBa59Bo0ePDsWLF89pcD377LPGAsEFACTH7bff7pAMCkz//v1zGlzjx483DgguACBZ6tSpUySb4dq1a4evv/7aNc+4M844I2fBNXnyZGOA4AIAkuWJJ54o9I3wFltsET766CPXOw9EdzAPPfTQIo+t0qVLxy9lNgYILgAgcU4//fRC2whXrlw5vP/++65zHone0bXzzjsXaXA1bdrUtUdwAQDJtHr16nDQQQcV+CZ4s802C2+++aZrnIeiUzCrV69eZME1fPhw1x3BBQAk+65EQf4UbLvttgvTpk1zbfNYdEx7mTJlCj22atSoEb7//nvXHMEFACT/+Zvu3bsXyM+7HJBBJHrnWrFixQo1uO6//37XGsEFAKTHuHHj/tQzONHLb/v16+fwAv5Nnz59Ci22OnToEDZs2OA6I7gAgPTd7brjjjtCo0aNfnfTW6JEiXDiiSeGzz//3LXjF/Xo0aPAY6tJkyZh5cqVri+CCwBIt+j9Rr169QotWrQIO+64Y/x8VsOGDcOxxx4bbrvttvDll1+6Tvym6C7UtddeG4oXL14gsdWqVSvPbSG4AADyTXTHxV2XX/faa69t0pHxFSpUCAMHDgzr1693PRFcAABZEv1kcvTo0fGG/5xzzglHHnlk2G233UKdOnVClSpV4p9W/lIklCpVKj5JLwqN/fbbL74706VLl/jZpnvvvTdMmDAhfPrpp3kTEWvXro3/uffZZ58/HFrVqlULl156afjqq6/MRQQXAEAWREfl33PPPeGkk04KtWvXLvTjzaO7N9FzSdFJkUOHDg1vv/12HCdZvsZRaI4YMSJccskloW3btqFx48ZxiLVs2TK0b98+jtJXXnklflecOYngAgBIueXLl4eHHnootGnTJpQuXbrIXtz7aypVqhSHyKBBg8KHH35ojEBwAQCkz5w5c+K7LJUrV855ZP2W6GeJ0eET0X9f4waCCwAg0d588834DlJBnZ5XVKLnxY4//vj4Z4fGEQQXAECiTJ06NX5pbpoi69dEzzu9//77xhUEFwBAbn3yySfx81lZCK2fiu7QRScffv3118YZBBcAQNFasWJFfOJdmTJlMhdbPxU9gzZ48OCwbt064w6CCwCg8D3++ONh6623znRo/VyzZs3CrFmzjD8ILgCAwhG9R+vUU0/Nq9D6qXLlysV3uzZs2GA+gOACACg4Y8aMCVtuuWXextZPHXPMMXF8mhcguAAANsnatWtDr169hNbPbLvttuGtt94yR0BwAQD8OfPmzQtNmjQRWL8iOjDkoYceMldAcAEAbJxXX301bLHFFsLqdxQrVixcd9115gwILgCAP2b06NGhbNmygmojRO/sWr16tfkDggsA4NdFp/BFL/0VURuvRYsWYenSpeYRCC4AgP/kcIxN16BBg/jZN/MJBBcAwL/07t1bMBWQevXqhfnz55tXILgAAP433HzzzUKpgO20007hq6++Mr9AcAEA+Wzo0KECqZA0atQoLFq0yDwDwQUA5KMXX3wxlCxZUhwVot133z0sXrzYfAPBBQDkk+nTp4fNN99cFBWB6OXRK1euNO9AcAEA+WDhwoVhhx12EENF6Pjjjw8bNmww/0BwAQBZtnbt2tCsWTMRlAPXXXedOQiCCwDIsr59+4qfHIleKD1+/HjzEAQXAJBFM2bMCKVKlUpskOy4446hU6dO8Z2gBx54IPz9738Ps2fPjg+dWLZs2b/9s3z33Xfh66+/DnPmzAkTJ04Md999d7j88stDu3btwlZbbZXYf8bov9s333xjPoLgAgCypmPHjomKj4oVK4YuXbqEp556Ko6ngvrnjJ6Vmjp1arjppptC8+bN4ztLSXuey3wEwQUAZEj0Et4SJUokIjiiZ8geeuihsGLFiiK7s9ezZ8848JISXc8++6x5CYILAMiKO+64I+eRse+++4YXXnghZ9cg+hlinz59QtmyZXN+LerWrRvWrFljboLgAgCy4LTTTstZXFSpUiW+o5WUaxE9F9a6deucR1f03Jm5CYILAMiAXB0Ff/jhh4cvvvgikdfk4YcfDhUqVMhZcO2yyy7mJgguACAL9thjjyIPimuuuSbxL/udNm1a/PO+XEVXdLiH+QmCCwAQXH9YdPT8Pffck5prEx07f+ihh+YkuG6++WbzEwQXAJB20fHoRREQZcqUCc8//3wqr1GrVq2KPLh69OhhfoLgAgDS7rjjjiv0eIiOnX/yySdTfZ2KOrrOOecc8xMEFwCQdtF7qAozHIoVK5aqnxH+lsMOO6zIgqtv377mJwguACDtBg4cWKjhMGDAgMxcq+h9XdEJgkURXPfee6/5CYILAEi7l156qdCi4aKLLsrc9Zo1a1aoWrVqoQfX559/bn6C4AIA0m758uWhbNmyBR4MJ510Uli/fn1mI7VkyZKFFluNGjUyN0FwAQBZceKJJxZoMLRv3z6sXr0609dsyJAhhRZcw4cPNy9BcAEAWTF9+vT42PaCiIVTTz01rF27Ni+uW/fu3Qs8tnbccce8uX4guACAvHHXXXfFJwpuSixccMEFmf0Z4S9Zs2ZNaNGiRYHFVunSpcPEiRPNRxBcAEAWPfzww6FixYobHQqVKlUKo0aNystrtnjx4lC/fn3H54PgAgD4fdHpeJ06dQrFixf/Q5Fw/PHHhzlz5uT1Nfvmm29C48aN/3RsRZGb9hdDg+ACANgI8+bNCzfeeGPYc889Q6lSpf4tELbZZpvQtWvXMGnSJNfq/6xcuTJ+ifQfCdWfBmt0wMiMGTNcQxBcAEC+ip5V+uijj8Inn3wS5s+f75r8hug69ejRI2y99da/GloNGzYMF198cZgyZYprBoILAIA/+1PDd955J4wfPz68/vrrcYwtXbrUtQHBBQAAILgAAAAQXAAAAIILAABAcAEAACC4AAAABBcAAIDgAgAAQHABAAAILgAAAMEFAACA4AIAABBcAAAAggsAAADBBQAAILgAAAAEFwAAAIILAABAcAEAAAguAAAABBcAAIDgAgAAEFwAAAAILgAAAMEFAAAguAAAABBcAAAAggsAAEBwAQAAILgAAAAEFwAAgOACAABAcAFAmnz33XdhyZIlsU8//TTMmTPnX6ZPnx4mT578L++8804YP378v3nqqafCqFGj/uWxxx4Lw4cP/03Dhg0L/fv3/129evXaaBdccEHo1q1boenSpUvo0KFDoTn66KNDy5Ytoci1bt06fPLJJ74XBRcA5K+vvvoqvPfee3HojB49Otxzzz3h1ltvDddcc00cGqeddlpo3779vzZQjRs3ju28886hbt26YZtttglVqlQJm2++efiv//ovgH9TvXr1+A8rvm8FFwBk2oIFC8IDDzwQzj///NCmTZvQsGHDUL58eRtCoNBtttlmYdy4cb6LBRcAZDO0TjnllFCyZEkbPyBnSpUqFR588EHfy4ILALJhw4YN4W9/+5uf+gGJUaxYsXDzzTf7jhZcAJBua9asCZ07d7bBAxLp0ksvjf8o5PtacAFA6ixfvjwcccQRNnVAop100klh1apVvrcFFwCk62eEJ5xwgs0ckApNmzYNCxcu9P0tuAAgHa6++mqbOCBVGjRoEObOnes7XHABQLK99NJL8QPpNnBA2my99dZhypQpvssFFwAkU/QcRPQiYhs3IM3v6nruued8pwsuAEievn372rABmXhX18SJE32vCy4ASI7vv//eu7aAzHj44Yd9twsuAEiOgQMH2qQBmfHQQw/5bhdcAJAM69atC9tuu61NGpAZDz74oO93wQUAyfD3v//dBg0QXAguACgMl1xyiQ0aILgQXABQGHbaaScbNCBT7r//ft/vggsAcm/RokU2Z4DgQnABQGF4+eWXbc4AwYXgAoDCcMstt9icAZlz3333+Y4XXACQe+edd57NGZA59957r+94wQUAuXfqqafanAGCC8EFAIWhbdu2NmdA5owcOdJ3vOACgNxr0aKFzRmQOffcc4/veMEFALnXvHlzmzNAcCG4AEBwAfwxd999t+94wQUAggugMIwYMcJ3vOACAMEFILgQXAAILoAUueuuu3zHCy4AEFwAhWH48OG+4wUXAOTe5MmTw/jx48mIRx55JFSpUsWGm7w3bNgw3/GCCwCg4E2fPj3Url3bphvB5ftAcAEAFIa5c+eG+vXr23iTt4YOHeq7QHABABSexYsXh6ZNm9p8I7gQXAAAhWH58uWhdevWNuDknb/97W++AwQXAEDhW7NmTTj11FNtwskrd955p8+/4AIAKBobNmwIffr0sRFHcCG4AAAKyz333BNKlixpQ07m3XHHHT7zggsAoOi9+OKLoWLFijblZNrtt9/u8y64AAByY9KkSWHLLbe0MUdwIbgAAArDp59+6l1dZNZtt93mcy64AABya9GiRWGLLbawQSdzhgwZ4jMuuAAAcm/HHXe0QUdwIbgAAArDzjvvbINO5gwePNjnW3ABAOSe57jIokGDBvl8Cy4AgNxr0KCBDTqCC8EFAFAYdt11Vxt0MufWW2/1+RZcAAC516hRIxt0MueWW27x+RZcAAC5t/vuu9ugI7gQXAAAhWHPPfe0QSdzbr75Zp9vwQUAkHuNGze2QSdzBg4c6PMtuAAAcm/vvfe2QUdwIbgAgI23cuXKsGbNGtfiN+y777426GTOgAEDfL4FFwC5sGrVqrBkyZL/MHfu3DBnzpz/MHPmzDB58uRfNHHixDB+/PhfNHr06DBq1KgC9cgjj4Thw4cXuNtuuy30799/kz3//POJG+8rrrgi3nyVLVs2bLHFFqFu3brxT+gOOeSQcPTRR4dTTjklnH322aFXr17hr3/9a7j99tvDfffdF5566ql4HKNxnjFjRvjqq6/iuZPFz0STJk1s0Mmcm266yZonuACyb/Xq1WHhwoVxuEyfPv3fImXs2LFxRNx///3xpj96SWW0ab/mmmvize95550XunXrFk499dTQoUOH2DHHHBNatmz5L9FPoaLNc2SXXXaJN9OR7bbbLlSpUuVfSpYsaQNSBM4666zEBldBqVChQqhdu3Z8sl8Ubccdd1z8z3355ZfHG7x77703TJgwIQ74devWpeJzuv/++5u/CC4EF0BSLViwIH7BZKdOnULz5s3DzjvvHLbccsv4joJFP7907do188G1MUqXLh3HzKWXXhpeeumlsH79+kR+hps1a2b+pkg0r34e/dEfp0466aT4ru2hhx4a/xFqhx12CCVKlMjb63TjjTdaowUXQLo999xzoXXr1nm9oCO4NkadOnXinywmLbwOPPBA8zfBorg644wzwoMPPhj/UmBjnkmMfgY7derU8Nhjj8W/Hoi+s8uXLy+4EFwASTZp0qT4TpaNED8X/ZVdcP2+pk2bhs8++ywx1+jggw82fxN4F+v000+Pf4K9YcOGAh/z6I7rxRdfHOrXr5/Zaxg9k2nNFlwAqbJo0aL4JyvFihWzIUJwbaKaNWuGKVOmJOIa+QNKckTfr6eddlqYN29ekY3/e++9F84555xQsWLFTF3LG264wdotuADS45VXXgm1atWyIeI3de/eXXBthKpVq4YPPvgg59eoRYsW5m8CRM9kvfHGGzmbB4sXLw59+/YNlStXFlwILoCiEp2ydtlll4XixYvbECG4CkGNGjXCJ598ktNrFJ34af7mzuabbx6GDBkS1q5dm4jPzLfffht/ltP+vX/99ddbxwUXQLKtWLEitG3b1oaIPyx6n5Xg2njRqwy+/vrrnF2jww47zPzNkYMOOijMnz8/kWtA9HqD6MCOtF7bfv36WcsFF0ByRe/POvLII22IEFxFpFGjRmHp0qU5uUZHHHGE+ZuDZ7Wi9w0m5a7Wb/3MMDpmXnAhuAAK+GeExx57rE0RG61Hjx6CaxNE71SKjvEu6mvUqlUr87eIf0I4evTo1KwJURRGcSi4EFwABSA6fviss86yKUJw5ciJJ55Y5O/pit7NZP4W3bvYZs2alcr1YdiwYal672J0AIh1XXABJM5f/vIXmyL+tOhoacGVvuvYpk0b87cINGzYMCxYsCDVa8R9992XmsM0BJfgAkicoUOH2hQhuBKif//+RXaNjj76aPO3CA5GSerhGBtr5MiRqYguwSW4ABLl6aefTtVPRUimc889V3AVkNKlSxfZNWrXrp35W4iqVasWZs+enak1Y9CgQYm/7n369LG+Cy6AZHjttddC2bJlbYwQXAlSqlSpIrtG7du3N38LScmSJcP48eMzuXacdNJJggvBBfBHHHPMMTZGFIiePXsKrhQG13HHHWf+FpJrrrkms2vH8uXLQ4MGDQQXggtAcCG4BNdv6dChg/lbCPbYY4+wZs2aTK8fH374YTxXxS6CC0BwUQTOO+88wZXC4DrhhBPM30J4sfHEiRPzYg256KKLBBeCC0BwIbgE16/p2LGj+VsI71PLlzVk2bJloUaNGokbg+g1J9Z4wQUguMiU888/X3ClMLhOPvlk87eA725FP7XzWhHBheACEFwILsEVTjnlFPO3AB111FF5t46sXLkyVK1aNVHjcPXVV1vjBReA4CJbLrjgAsGVwuDq1KmT+VuAovca5uNacskllwguBBeA4EJwCa6f69Kli/lbQKpXr575kwl/TfRy5+LFiydmLK666iprvOACEFxky4UXXii4Uhhcp512mvlbQKK7hfm8njRu3FhwIbgABBeCS3D91BlnnGH+FpBHHnkkr9eTKHKSMhbRZ98aL7gABBeCS3DlPLjOPPNM87eAfPHFF3m9nrz22muCC8EFILgoLNELUAVX+oKra9eu5m8BqFWrVt6vJ9Hza+XKlUvEePTq1csaL7gABBeCS3DlPri6d+9u/haA1q1bW1N+tNtuuwkuBBeA4KIwXHzxxYIrhcF19tlnm78Z/UltLnTo0CER43H55ZcbD8EFILgQXIIr98F1zjnnmL8FYNCgQdaUH/Xu3TsR43HZZZcZD8EFILjIlujFp4IrfcHVs2dP87cA3HvvvdaUH91zzz2CC8EFILgQXILrn84//3zztwA8/fTT1pQfjRo1KhHjcemllxoPwQUguMiWJG5wBNfvu+CCC8zfAhAdiW5N+d/w/PPP+z5CcAEILgSX4Pqn6HRJ83fTTZs2zZryo4kTJ7rjjuACEFzkyzMTguv3RRtT83fTzZgxw5ryo3fffdchPgguAMGF4BJc/xTdmTR/N92HH35oTfnR66+/LrgQXACCi3x5743g+n3RuJm/my66s2NNSc4zXEl8ETuCCxBcILjyMLjSeo2S5oUXXrCm/Ojxxx/3ImoEF4DgojD06tVLcKUwuK666irztwCMHDnSmvKj4cOHJ2I8otM3jYfgAhBcCC7BlfPguvrqq83fAtC3b19ryo+iZzkFF4ILQHBRCKK4EVzpC67evXubvwWgQ4cO1pQErSnRC72Nh+ACsDgiuARXzoOrT58+5m8BqF+/vjXlRw0bNkzEeJx33nnGQ3ABCC4El+ASXFlRvHjxsHDhwrxeT77//vt47gouBBeA4KIQXHnllYIrhcEVPXtk/haM0aNH5/V68swzzyRmLHr27GmNF1wAggvBJbhyH1zXX3+9+VtAunXrltfrSXRXKSljce6551rjBReA4CJbouPFBVf6guuGG24wfwtIjRo1wrp16/J2Pdlpp50EF4ILQHAhuATXT914443mbwEaP358Xq4lEydOTNQ4nHPOOdZ4wQUguMiW6H1Ogit9wdW/f3/z1/Hwm+zUU08VXAguAMGF4BJcPzdgwADzt4DHbv78+Xm1jixatCiULVs2UePQo0cPa7zgAhBcZMtf/vIXwZXC4Bo4cKD5W8AuvvjivFpHLr300sSNwdlnn22NF1wAggvBJbhyH1y33HKL+VvAors9X375ZV6sIZ999lkoU6aM4EJwAQguClvv3r0FVwqDa9CgQeZvITjzzDPzYg3p2LFjIq9/9+7drfGCC0BwIbgEV+6Da/DgweZvIShevHh46623Mr1+PP/886FYsWLeiYbgAhBcFIVrrrlGcKUwuG6//Xbzt5DstttuYdWqVZlcOxYsWBC22GKLxF77rl27WuMFF4DgQnAJrtwH1x133GH+FqLoQImsrRvr168Phx12WKKvu+ASXACCi8zp06eP4EphcP3tb38zfwv5p4XPPPNMptaNyy+/PPHX/ayzzrLGCy4AwYXgEly5D65hw4aZv4WsUqVK4aOPPsrEmpGWQ1by5dASwQUguBBcgivhwTV8+HDztwjUqlUrfP7556leLx599NH4jp3gQnABCC4El+D6g0aMGGH+FpGGDRuGb775JrWxVbp06dRc6zPOOMMaL7gABBfZcu211wquFAbX3Xffbf4WoZ133jnMmzcvVevE0KFDU3NnS3AJLgDBheASXIkKrnvvvdf8LWK1a9cOU6ZMScUacf3116fyGp9++unWeMEFILjIlr59+wquFAbXfffdZ/7mQIUKFcJjjz2W2LUhen9YdJcordf3tNNOs8YLLgDBheASXLkPrgceeMD8zfHx5cuXL0/U5yb6yWPTpk1TfV27dOlijRdcAIKLbLnuuusEVwqD68EHHzR/c6xOnTrh+eefT8RnZtSoUaFq1aqpv6aCS3ABCC4El+BKRHA9/PDD5m9CtGvXLmfv6/rkk0/CkUcemZlr2blzZ2u84AIQXGRLv379BFcKgys67tv8TY6SJUvGsTBt2rQiGf+5c+eGHj16xHMuS9exU6dO1njBBSC4EFyCK/fB9fjjj5u/CVSsWLHQokWL+CefK1asKNAx37BhQ5gwYUI45ZRTMhdagktwAQguMis6PlpwpS+4omd2zN9kK1++fPxdfdddd4WPP/74T43z999/H1544YXQs2fPsN1222X+mp166qnWeMEFILgQXIIr98E1evRo8zdlqlevHg455JBw9tlnh/79+4eRI0fG4fz000/Hh29Ex81HLyu++uqrQ8eOHcOuu+4aSpQokVfXKLp7Z40XXACCi0y54YYbBFcKg+vJJ580fxFcCC4AwYXgElyFYcyYMeYvmXPyySdb4wUXgOAiW/76178KrhQGV/QzNPMXwYXgAhBcCC7BVQjGjh1r/pI5J510kjVecAEILrLlxhtvFFwpDK7nnnvO/CVzosNCrPGCC0BwIbgEV86D67//+7/NXwQXggtAcCG4BFdhGDdunPlL5px44onWeMEFILjIluh9QIIrfcH14osvmr9kzgknnGCNF1wAggvBJbhyH1wvvfSS+YvgQnABCC6S7qabbhJcKQyul19+2fwlczp06GCNF1wAggvBJbhyH1wTJkwwf8mc448/3hovuAAEF9kyYMAAwZXC4Hr11VfNXwQXggtAcCG4BFdheP31181fMue4446zxgsuAMFFtgwcOFBwpTC4Jk6caP6SOccee6w1XnABCC4El+DKfXC9+eab5i+CC8EFILhIuptvvllwpTC4/ud//sf8JXPat29vjRdcAIILwSW4ch9cb7/9tvlL5rRr184aL7gABBfZcssttwiuFAbXpEmTzF8EF4ILQHAhuARXYXj33XfNXzInWtus8YILQHCRKbfeeqvgSmFwvffee+YvmXP00Udb4wUXgOBCcAmu3AfXlClTzF8EF4ILQHAhuARXYZg6dar5S+a0bdvWGi+4AAQX2TJo0CDBlcLg+uCDD8xfMqdNmzbWeMEFILgQXIIr98E1ffp08xfBheACEFwk3eDBgwVXCoPrH//4h/lL5hx11FHWeMEFILgQXIIr98H18ccfm79kTuvWra3xggtAcJEtQ4YMEVwpDK4ZM2aYvwguBBeA4EJwCa7CMHPmTPOXzDnyyCOt8YILQHCRLbfddpvgSmFwzZ492/wlc1q1amWNF1wAggvBVdh69eoluH7Hp59+av4iuBBcAIKLpLv99tsTN78vv/xywfU7PvvsM/OXzDniiCOs8YILQHAhuARX7oPr888/N3/JnMMPP9waL7gABBeCS3DlPri++OIL8xfBheACEFwILsFVGObPn2/+kjmHHXaYNV5wAQguBJfgyn1wLViwwPwlc1q2bGmNF1wAggvBJbhyH1xff/21+ZsyZcqUCfvss0/o3r17uOaaa8Ktt94a7r333vD444+H4cOHh/79+8cndB5//PGhbt26eXmNDj30UGu84AIQXAguwZX74Pr222/N34QrVqxYaNKkSRg4cGB4//33w5o1azZqjJcsWRJefPHFcP7554fatWsLLgQXgOBCcAmuorpGixYtMn8TapdddgmDBw+ODzYpqPHesGFDePvtt8PFF18cqlSpktlr16JFC2u84AIQXAguwZX74Fq8eLH5mzDNmjULo0aNCuvWrSv08b///vtDgwYNBBeCC0BwIbgEV2FYunSp+Zuggx7ee++9Iv+crF+/PowZMyY0bNgwM9fykEMOscYLLgDBheASXLkPru+++878zbF69eqFZ599Nuefl+iO2siRI8OWW26Z+mvavHlza7zgAhBcCC7Blfvg+v77783fHOrUqVP44YcfEvW5ie56duvWLT6sQ3AhuAAEF4JLcG2C5cuXm785UKFChfDEE08ken2Ifma4+eabp/L6HnzwwdZ4wQUguBBcgiv3wbVy5Urzt4httdVW4d13303FGjFz5szQqFGj1F3jgw46yBovuAAEF4JLcOU+uOJNjvlbZOrUqRPmzp2bqnVi2bJlccCk6TofeOCB1njBBSC4EFyCK/fBtXr1avO3iEQvHf70009TuVZEd0KPOuoowYXgAhBcCC7BtTHWrl1r/haBatWqhRkzZqR+zUjLna4DDjjAGi+4AAQXgktw5T64oqPAzd/CVbJkyfDyyy9nYs2Ifl642267peLl0dZ4wQUguBBcgivnwbVhwwbzt5ANHjw4U+vG7NmzQ+XKlQUXggtAcCG4BNcfkeb3LSVdq1at4qjN2toRHRmf5HnTtGlTa7zgAhBcCC7BlYzgKl68uDlcCKJ3WM2bNy+z60eXLl0EF4ILQHAhuATX74meMTKHC96wYcMyvX4sWrQo1KhRI5HXfv/997fGCy4AwYXgElzJCK7SpUubwwUsellwdCBJ1teQu+++O5HXv0mTJtZ4wQUguBBcgisZwVW2bFlzuIC99NJLebGGRK8V2HnnnQUXggtAcCG4BNevKVeunDlss/+nPfroo4kbg/32288aL7gABBeCS3AlI7jKly9vDheg6AS/fFpHortctWrVElwILgDBheASXL+kYsWK5nABqVevXli/fn3erSXXXXddosZh3333tcYLLgDBheASXMkIrkqVKpnDBaRfv355uZZ88cUXiXov1z777GONF1wAggvBJbiSEVzR+6LM4U0XBcenn36at+tJdFdJcCG4AAQXgktw/UzVqlXN4QJwwAEH5PV60r9//8SMxd57722NF1wAggvBJbiSEVzVqlUzhwvADTfckNfrydtvv52YsWjcuLE1XnABCC4El+BKRnBVr17dHC4AkydPzuv1ZM2aNaFChQqCC8EFILgQXILrp7bccktzeBNFz8Hl4+mEP3fggQcmYjz22msva7zgAhBcCC7BlYzgqlmzpjm8iQ455BBryo/OOuusRIzHnnvuaTwEF4DgQnAJrmQE11ZbbWUOb6JLLrnEmvKjAQMGCC4EF4DgQnAJrp+qVauWObyJRowYYU350WOPPZaI8dhjjz2Mh+ACEFwILsGVjOCqXbu2ObyJxo0bZ0350YsvvpiI8dh9992Nh+ACEFwILsGVjODabrvtzOFN9MEHH1hTfjRp0qREjMduu+1mPAQXgOBCcAmuZARXnTp1zOFNNH/+fGvKj6ZOnSq4EFwAggvBJbh+qm7duubwJlq0aJE15UfvvfdeIsajUaNGxkNwAQguBJfgSkZw1atXzxzeRN999501JUE/Kdx1112Nh+ACEFwILsGVjODaaaedzOFNtGTJEmtKgg7NEFyCC0BwIbgEV2KCa+eddzaHN9GcOXOsKT964IEHEjEeDRs2NB6CC0BwIbgEVzKCa5dddjGHN9HkyZOtKT8aOHBgIsajQYMGxkNwAQguBJfgSkZwRXcDzOFN88wzz1hTftS1a1fBheACEFwILsH1U9HzLubwpunfv7815UfNmjVLxHhEd22Nh+ACEFwILsGViOCK3llkDm+azp075/16smHDhlClSpVEjEf9+vWt8YILQHAhuARXMoJrjz32MIf9hG2TTZs2LTHjIbgEF4DgQnAJrsQE15577mkOF4Avv/wyr9eTQYMGJWYsopM3rfGCC0BwIbgEVyKCq3HjxuZwAYiORM/n9aRNmzaJGYvo3XLWeMEFILgQXIIrEcG19957m8MFoH379nm7lixdujSUKVNGcCG4AAQXgktw/dy+++5rDheA0qVLh0WLFuXlWjJixIhEjcWOO+5ojRdcAIILwSW4khFcTZo0MYcLyNChQ/NyLTn44IMTNQ716tWzxgsugNz77rvvbLQQXIIrNG3a1BwuwNPx1q9fn1drybvvvpu4cRBcggsgpxYsWBD69OmTmPelILgEV26DKykvq82KsWPH5tWacsIJJyRuDHbYYQfrveACKHrvvfde6NSpU7yZsylCcAmufzrwwAPN4QK0//77xy8Bzod15cMPPwwlSpRI3BjUrVvXui+4AIpG9NOW6K+tLVu2tBFCcAmuVDx/kwWPPvpoXqwxhx9+eCKvv+ASXABF4v7774+fJ7D5QXAJrt9yyCGHmMMFrHbt2mHFihWZXmOeeeaZxF7/OnXq2AcILoDC8c0334Qrr7zS81kILsH1h7Vo0cIcLgQXXnhhZteahQsXhq222iqx13777be3JxBcAAXrq6++Cr169Qrly5e30UFwCa6N4ifHhaNYsWLhpZdeyuSac9xxxyX62gsuwQVQYGbNmhXOPPPM+IWbNjgILsGVpedwsiC6C/Tll19mat0ZMGBA4q/7dtttZ48guAA2zeLFi+M7WkILwSW4NtURRxxhDheivfbaKyxfvjwTa090CFPx4sUTf8233XZbewXBBfDnrFmzJgwePDhUrlzZRgbBJbgKxJFHHmkOF7I2bdqE1atXp3r9mTBhQmp+ti64BBfAnzJmzJj4qFubFwSX4CpIRx11lDlcBNq2bRtWrVqVyvXn1VdfTdUzwtEpkfYNggtgo04ejF5YbMOC4BJchSG6+2IOF43oeblly5alag165JFHQtmyZVN1nWvVqmX/ILgA/phRo0aF6tWr26gguARXoTn66KPN4SK0yy67hJkzZyZ+/Vm3bl3o3bt3fNpi2q6x4BJcAL/r22+/9VdnBJfgKhLt2rUzh4vY5ptvHh544IHErkFz584NBxxwQGqv7zbbbGMvIbgAft2kSZPid4jYlCC4BFdRaN++vTmcI9H7rJJ0bPzatWvDoEGDQqVKlVJ9Xbfeemv7CcEF8MuGDx/uqHcEl+Aq0uuU9JfYZl2FChVCv379wooVK3L6eXnuuedCo0aNMnFNBZfgAvgPP/zwg00Pgktw5SS4OnToYA4nQI0aNcL1118fli5dWqR3tJ588smw9957Z+6F0/YWggvgX7766qvQuHFjGw4El+DKSXCdeOKJ5nCCRMevRyfTvvLKK2H9+vWFMubTp0+PD8SI7gRl8RrWrFnT/kJwAfw/s2fPDvXq1bPJQHAJrpwFV8eOHc3hhIpOqT311FPDQw89FGbNmrVJBzE99dRT4cILL8yLNUdwCS6A2Ntvvx222GILmwoEl+DKaXCdfPLJ5nBKVK1aNRx00EHhtNNOC3379g133nlnHGPRK0T+acSIEeG6664L5557bmjZsmV8RHq+Xactt9zSPkNwAfluwoQJ8c9GbCAQXIIr18F1yimnmMMILgQXkB1vvfVWqFixokURwSW4EhFc0fNC5jBZO4DEfkNwAXlqypQpoUqVKhZEBJfgSkxwdenSxRwmU6Kf69tzCC4gD33wwQehWrVqFkMEl+BKVHBFzwOZwwguBBeQal9//XWoXbu2hRDBJbgSF1xnnHGGOUzmTne09xBcQB5ZvXp1fKqURRDBJbiSGFxnnXWWOUymRL8msf8QXEAesZlBcAmuJAdX165dzWEEF4ILSKeBAwda/BBcgivRwdW9e3dzmMy9r8weRHABeeDdd9+NN04WPwSX4EpycPXo0cMcRnAhuIB0Wb58edhpp50sfAguwZX44DrnnHPMYQQXggtIF89EILgEV1qCq2fPnuYwmRK979JeRHABGfb0009b8BBcgis1wXX++eebwwguBBeQDsuWLQs1a9a04CG4BFdqguvCCy80h8mUypUr25MILiCrLrjgAosdgktwpSq4LrroInMYwYXgApJv+vTpTiVEcAmu1AXXJZdcYg4juBBcQLJt2LAhNG/e3EKH4BJcqQuuyy67zBwmUzbffHN7E8EFZM1DDz1kkUNwCa5UBldarxMILsEF5Il169Z55xaCS3ClNriuuOIKcxjBheACkmvkyJEWOASX4EptcF111VXmMJlSqVIl+xPBBWTFmjVrQt26dS1wCC7Bldrguvrqq81hBBeCC0imu+++2+IGgivVwdW7d29zGMGF4AKS+eyWu1sguNIeXH369DGHyZSKFSvapwguIAvGjBljYQPBlfrguvbaa81hBBeCC0ieli1bWthAcKU+uPr27WsOI7gQXECyzJw5MxQrVszCBoIr9cHVr18/c5hM2WyzzexVBBeQdj179rSogeDKRHDdcMMN5jCCC8EFJMfy5cvjE5AsapDs4LrllltCmTJlBNfvuPHGG81hBBeCC0iOhx9+2IIGKQiuyNq1a8P06dPD8OHDQ6dOnUKDBg0E18/079/fHCZTKlSoYL8iuIA0a9u2rQUNUhJcv2TBggXxKaPRTw4POuigUL58+bwOrgEDBpjDCC4EF5AMS5YsSeVPlEBw/bG7YB06dAg1atTIq+C6+eabzWEEF4ILSIYRI0ZYzCBjwfVLogCLfmrXrFmzULx48UwHV/SsmzlMlkR3re1ZBBeQUoceeqjFDPIguH7qq6++iv/5dt9990wG16BBg8xhBBeCC0jGzwlLlixpMYOfOfHEE8PSpUvz4ntg0qRJoWvXrqFs2bKZCa4hQ4aYx2RKuXLl7FsEF5BGjz/+uIUMfqJixYrxc0/5+H3wzTffhF69ehVKeBV1cN12223mM4ILwQXk3umnn24hg/+zzz77hJkzZ+b998Jnn30WTjjhhFQH1x133GFOI7gQXEBubdiwIWy99dYWMvJesWLFwvnnnx9Wr17tu+EnnnvuubDNNtukMrj+9re/mdtkSnTn2feS4AJSZurUqRYx8l7t2rXDa6+95jvhVyxatCg+Vj5twTV06FDzG8GF4AJyKzoe2iJGPotCIjo4xvfB7xs8eHAoUaJEaoIreg7PHEdwIbiAnDryyCMtYuSlKByiPzj4Htg448aNC5UrV05FcHm/IFlTpkwZ30OCC0jb81tVq1a1iJF3KlWqFMaOHet74E/64IMPQs2aNRMfXHfffbf5juBCcAG58/HHH1vAyDu77LKLUwgLwIwZM+Jn35IcXCNHjjTnEVwILiB3/PWXfFO/fv3w9ddf+/wXkLlz54Z69eolNrjuu+8+855MKV26tO8ewQWkyZlnnmkBI2/stNNOYcGCBT77BWzevHlh2223TWRwPfDAA+Y+ggvBBeROw4YNLWDkheguzPz5833uC8msWbP+0DNdRR1cDz74oPmP4EJwAbmxcuXKTTreGdKiRo0a4fPPP/e5L2TTpk0LVapUSVRwPfzwwz4DZEpRf4YQXMAmmDx5ssWLzCtevHh48cUXfeaLSPTy6Og9QUnZLD766KM+BwguBBeQGx4mJx/ccMMNPu9F7IknnohDNwmbxccee8znAMGF4AJy49JLL7V4kWlHHXVUWL9+vc97DgwcODARm8VRo0b5LJApJUuW9B0juIC0aNWqlcWLzKpWrVpYuHChz3oOnXfeeTkPrtGjR/s8ILgQXEBubLPNNhYvMmv48OE+5zkW3V1s165dToPrySef9HlAcCG4gKL3/fffW7jIrL333ttPCRN0GmqTJk1yFlxjxozxmSBTotOFfbcILiAlxzdbuMjqqYRvvfWWz3mCRD/tjN6DlovgeuaZZ3wuEFwILqDojR071sJFJnXu3NlnPIE+/vjjULVq1SIPLt91ZPGPSr5TBBeQAkOGDLFwkTnFihULH330Ueo/n+vWrQsffvhh/NLefv36hbPOOiu0bt06HHjggWGPPfYIjRs3ju27777xv96lS5dw1VVXhQcffDB+v96qVasS+c/197//PWy22WZF+p/53HPP+WwguBBcQNG76KKLLFxkztFHH53awHrjjTfCtddeG0dV+fLlN+k6RC8ejv7/XH311eHtt98OGzZsSNQ7uoryP+/555/32UBwIbiAote+fXsLF5kTRUuaPofRf99zzz03bLnlloV6XWrVqhX/kSX6WV++fdeNGzfOZ4PM3cm3jxFcQArsueeeFi4ypVmzZqn47K1YsSIMGzYs7LbbbjnZqB1yyCFxhOTLd92LL77o84HgQnABRS96eN3CRZY89NBDiT8efdCgQYV+N+uP2m+//cLLL7+c+e+68ePH+3wguBBcQNH64YcfLFpkSvTMUzSvk/qZe/TRR+Of9SXx2nXo0CHMmzcvs993r7zyis8ImWMvI7iAhPvHP/5hwSJTTjjhhER+1mbOnBkOPvjgxF+/6OTAkSNHZvL7bsKECT4jCC4EF+AhctgUTz31VKI+Y9GpgEOHDg0VKlRIXbguW7YsU993r732ms8IggvBBRSt4cOHW7DIjM033zxxP9k97rjjUns9GzRoEObMmZOZ77vo3V8+JwguBBdQpP7yl79YsMiMjh07JuazNWvWrNCwYcPUX9MtttgivPXWW5n4vps4caLPCZmTpHfrIbiAX9CpUycLFpkR3bFNwudq+vTpYeutt87MdY1+Dvnqq6+m/vvuzTff9DlBcCG4gKKVhof44Y/65JNPErGpr1y5cuaubXSYRnSHKM3fd9GdOp8TBBeCCyhSderUsWCRCVtttVXOP09Tp04NVapUyew1jt7Zl4So/bPefvttnxUyZ/369fYzguv/a+/O460qy76Bv+cc5vEwG4MkBxVwBEQMUhPQVBLECXCuSCSVVETUUMQR0igSDTMVRBJNLVNJRSPNmC1QEnFAZVCIeXyBwznrfdb5vE+PTzkw7LXXWnt///j+Kx/v++zrun57r3XfQFKFRbpy5coaFjnh3HPPjfXzFAaR8H2nXF/nkpKSYPXq1amseXPmzPFZQeBC4AKyZ/ny5ZoV3t/KgPXr1wcHHnhg3qx1jx49UjnkzZs3z2cFgQuBC9j9u33CwBS+nB8OEa+88kowbdq0imOPFy1aFKxbt+4r/xszZszQrMgZc+fOje2X4p49e+bdet95552pq5tvvPGGzwo5Z9euXeYigQvYVytXrgyeeuqp4Nprrw369OkTHHbYYUG1atW+sghXqVIlaNOmTdCrV69gyJAhwfjx4yuC2dKlSysC25QpUzQrckJhYWGwdevWWD6fo0ePzss1Dx9HDr/sSVMt/fvf/+7zgsCFwAX832DTpk0VYeh73/tecPDBB0dSoKtXrx40adJEsyIntG7dOpbP6ptvvhlUrVo1b9f95JNPTlVtXbBggc8LAhcCF+Sr8BHACRMmBKeddtpu/XoF/I/evXtn/TMbDjkdOnTI+7UPD6JIS50NA7LPC7mmtLTUHCVwAV91atZFF10kZME++PGPf5z1z274iK61/z/BGWeckZp6G77zas8QuBC4IA+ExfGRRx4Jjj76aM0CMuCxxx7L+qmE+XAE/O6oVKlSxQE+aai9b7/9tj0j5+zcudNsJXABnz1Z8A9/+EPFoReaBGTO3/72t6x+locPH27dP2PkyJGpqMHhXWn2C4ELgQty1Msvvxx07NhRc4AIbNiwIWuf5fDfKi4utu6f0bx581S8uL948WL7hcCFwAW5JhzOvvvd72oKEJHw0b5sfqZvv/126/45nnnmmcTX4/fee89ekXN27Nhh3hK4IH/98Y9/rPjmV0OA6BxzzDFZveS4ZcuW1v1znHrqqYmvyR988IG9QuBC4IJcEA5l11xzTVBQUKAZQMTOOuusrH22X3jhBWv+JYdnfPrpp4muzUuWLLFXCFwIXJB2mzdvrrhLSxOA7Ljsssuy9vnu27evNf8SY8aMSXR9/uijj+wTOWf79u3mL4EL8kd4NLKLUCG7br311qx8vsOhpnbt2tb8S7Rv3z7RNXrp0qX2CYELgQvS6v333w+aNWum+EOW3X///Vl7J9N6f7U333wzsXV62bJl9giBC4EL0ih8TMWL9BCPRx99NCuf8/DRRev91cL3V5Naq1esWGGPyDnmMIEL8uIxwpKSEkUfYvLUU09l5bPuwvLd07Rp08TeyRUe6mGPELgQuCBF1q5dG7Rp00bBhxg9//zzkX/WN23aFBQVFVnv3RSe5pjEmr1y5Ur7g8CFwAVpEX6De+KJJyr2ELOXXnop8s/7K6+8Yq33wHnnnZfIuv3Pf/7T/pBztm3bZi4TuCA3XX311Qo9JMCzzz4b+ef9oYcestZ7oEaNGhW/Ciatbq9Zs8b+IHAhcEEahC/pK/KQDL/97W8j/8yPHj3aWu+hhx9+OJGPgdsbBC4ELki48Mjj6tWrK/KQEJMmTYr8cz9y5EhrvYdOOOGExNXv9evX2xtyztatW81nAhfkjp07d1Zc7KnAQ3KMGzcu8s/+mDFjrPUeKiwsDD7++ONE1fCNGzfaGwQuBC5IshtvvFFxh4S56aabIv/sP/DAA9Z6L9xxxx2JquGbN2+2LwhcCFyQVHPnzg0qVaqkuEPCDBw4MPLPf/iemLXec+G1GUmq41u2bLEv5Jzw79qcJnBB6m3fvj1o166dwg4JdPrpp0deA2bNmmWt99KcOXMSU8vDwwXsCQIXAhck0J133qmoQ0J16tQp8hqwatUqa72XrrjiikR9eWZPELgQuCBhVq5cGdSpU0dRh4SqX79+VmpBzZo1rfdeaNSoUVBaWpqIer5jxw57Qs4J3000rwlckGoXXXSRgg4Jt27dushrgceK9960adMSUc/D4Gc/ELgQuCBBwncPwqONFXRItnnz5kVeD/r06WOt99KAAQMSUdPLysrsBzln06ZNZjaBC9KrS5cuijmkwJQpUyKvB+Hx89Z67x/7DB/ni7uml5eX2w8ELgQuSIqpU6cq5JAS4R15UdeEJ554wlrvg2effTYRtb2goMB+IHAhcEESdO3aVSEHR8P/y6JFi6z1Pjj//PMTUds9Jk6u2bhxo7lN4IL0efHFFxVxSJFWrVpFXhd27doVVK9e3Xrvpdq1a1fcgxV3fXeBPQIXAhf4dQvYQ+FjYtl4rKZDhw7Wex88+eSTsdf3KlWq2AsELgQuiNPLL7+sgEMKzZgxI/L68P3vf99a74Ozzz479hpftWpVe0FO2bBhg/lN4IJ0+fa3v62AQwqNHz8+8vrwy1/+0lrvg2rVqsX+bbzHQhG4ELggRu+++64XqiGlLrvssshrxNy5c631Pnr00UdjrfM1a9a0DwhcCFwQl8GDByvekFLHHnts5DUivEvKI2n75rTTTou1zoeHd9gHcsn69evNcAIXpMPmzZuDunXrKt6QUsXFxRUX20ZdKzp16mS990HlypWDtWvXxlbr69SpYx8QuBC4IA7jxo1TuCHlPv7448hrxQ9/+ENrvY8efPDB2Gp9GMztAblk3bp15jiBC9KhXbt2Cjek3HPPPRd5rXjooYes9T468cQTY6v19evXtwd4hwuBC7Jt1qxZijbkgNtuuy3yerFw4UJrvY/Cy4dXrVoVS71v0aKFPUDgQuCCbAtPN1O0If169+4deb0I3xOrV6+e9d5H9957byz1fuDAgdafnOLiY4ELEm/nzp1Bw4YNFW3IAV/72tfc15cSxx13XCw1/5VXXrH+5JRNmzaZ5wQuSLZnnnlGwYYcsnz58sjrxs0332yt91F45+GyZcuyXvN37doVNGnSxB4gcCFwQbacddZZCjbkkN/97neR142XXnrJWmfAmDFjYqn7Tpokl4TX2pjnBC5IrPC55+rVqyvYkENuuOGGyGtH+I1yUVGR9d5HnTt3jqX2T58+3fqTM7Zs2WKmE7gguR5++GHFGhw5vlcOP/xw672PCgoKgg8++CDrtb+srCxo2rSpPUDgQuCCqJ1yyimKNeSY8GLb8CRBp92lw+jRo2Op/5dffrn1Jyds3brVTCdwQTKtX78+qFKlimINOejdd9+NvIZMmDDBWmfA0UcfHUsPePXVV60/OWHbtm3mOoELPE4IZNfkyZMjryHvv/++tc7QY4UfffRRLI8VNmvWzB4gcCFwgccJgT115ZVXZqWOeA8oM37605/G0gcGDx5s/Uk9M53ABR4nBLKua9euWakl/fr1s94Z0KVLl1h6wV/+8hfrT+pt377dbCdwQfI89NBDijTksBo1agSlpaWR15L77rvPemfoscKlS5dmvReEh6vsv//+9gCBC4ELPE4I7Kn58+dHXksWLlxorTNk7NixsfSD8PFT60+a7dixw2wncIHHCYHse+CBB7LyC0njxo2tdwYcd9xxsfSEGTNmWH9SbefOneY7gQucTghk3yWXXJKVmtKnTx/rnQGFhYXBihUrYnmssGXLlvaA1MrG49MIXLBHTj31VAUa8kD79u2zUlPGjBljvTPk3nvvjaUvDBkyxPojcCFwgccJgT1RuXLlrNxP88Ybb1jvDOnWrVssvWHWrFnWn9TatWuXGU/gAo8TAvEI38+Juq6Ew05xcbH1zoCioqJg1apVsTxW+PWvf90ekErhJd5mPIELEqNnz56KMzj5zqPKCXb//ffH0h+GDh1q/RG4ELjA44TAnujfv39W6sudd95pvTPkpJNOiqVHzJkzx/qTSuEvtOY8gQtit27dumDEiBEKM+SZ8DExR4un7927NWvWxNIrSkpK7AGpY84TuCAWW7ZsCaZNmxYMGzYs6Nq1a0UDV5QhP2XjqPHwHpyaNWta7wx58MEHY+kdYc+w/ghcCFzwObZu3Rr85S9/CUaNGhX06NHDo4PAvzz99NNZqUPdu3e33hkSvhMXRy+ZN2+e9UfgQuCCUPiCaNgYb7/99uC4444TsIAvFB6GkI26NHLkSOudIWFND9+7jaO/tG7d2h6QGgUFBeZCgQsy/+3j4MGDg6ZNmyq0wG755je/mZX69Kc//cl6Z9DEiRNj6TPXX3+99Sc1CgsLzYcCF+y7Tz75pOJRwVatWimuwB6rVq1asGPHjqzUq/DfsuaZ0atXr1h6zt///nfrj8CFwEV+mDt3bnD22WdXXISpqAL7IjzyOxt1K/w1zXpnLihv3Lgxlv7Tpk0be0AqhDOSmVHggj0WHn7h5XMgk7J1AfINN9xgvTNo8uTJsfSh4cOHW39SoVKlSmZHgQt23/z584OePXsqoEDG9evXLyt17IUXXrDeGdSnT59Y+tGCBQusPwIXAhe5IzyJKjwIw6ODQFRatmyZlXq2efPmigHImmfuscJNmzbF0pvatm1rD0i88J5Rs6TABV/qkUceCRo1aqRoApHLxgXIoU6dOlnvDHr88cdj6U833XST9ScVVyiYJwUu+Fyffvpp0Lt3b8USyJqnnnoqK/VtyJAh1juDzjnnnFj61FtvvWX9EbgQuEin559/PmjYsKFCCWTVNddck5Ua9/vf/956Z1CtWrWCbdu2xdKv2rVrZw9ItKpVq5otBS74H6WlpcGIESMq7oxQJIFs69q1a1Zq3dq1a9W5DAtDbBx9K+xZ1p+kv+doxhS44F8DiKPegbi/Cd6+fbtfRlLowgsvjKV3LVq0yPojcCFwkXzvvvuuSySBRJg9e3ZW6t7AgQOtdwYVFxcHO3bsiKWHHXroofaAxKpevbpZU+Ai3/31r38N6tWrpygCifDzn/88K7Xv0Ucftd4Z9uKLL8bSx2655RbrT2LVqFHDvClwkc9efvnlipedFUQgKfr27ZuV+rds2TLrnWHhr4Zx9LLFixdbfxKrZs2aZk6Bi3wVHr8cXsanGAJJsv/++2etDoaXLVvzzNlvv/2CsrKyWHraEUccYQ8QuBC4SI6pU6dWvJyuEAJJtHz58qzUwvPOO896Z9hrr70WS1+77bbbrD+JvTbB7ClwkYd3bIWX8CmCQFI9+eSTWamH999/v/XOsCuvvDKW3vb+++9bfxKpdu3a5k+Bi3wyZ86cip+2FUAgyYYMGZKVmviPf/zDemdYixYtgvLy8lh6XPv27e0BAhcCF/EJv/1r3Lix4gckXpcuXbJSF8Ng0KhRI2ueYXPnzo2lz91xxx3Wn8SpU6eOOVTgIh9s2LAhOPDAAxU+IBXCi0KzdQHy6aefbs0z7Prrr4+l133wwQdBQUGBPSBR6tataxYVuMh14Te4Z5xxhqIHpEp4R2A2auTdd99tvTPsoIMOiq3ndezY0R4gcCFw4UJIgK8yevTorNTI2bNnW+8ILFy4MJaeN2rUKOtPohQXF5tHBS5y2bRp04KioiIFD0idXr16ZaVOlpaWugA+AuGXfXH0vSVLlniskESpV6+emVTgIld99NFHQcOGDRU7IJXq16+ftUt0u3fvbs0z7Mgjj4yt/3Xo0MEeIHAhcBGtnTt3ajiAx9J208iRI613BMJDLJxWiC+P6ptNBS5y0YgRIxQ5IPXCi4mzUTNfeeUV6x2Bu+66K7bTCq0/SdGgQQOzqcBFrlmwYEFQpUoVRQ5IvQsuuCArdXPr1q3qZgS+8Y1vxNYLw0ca7QECFwIXkbz8fdRRRylwQE444IADslY/O3fubM0zLDy8YtmyZbH0w9tuu80ekAjh+/RmVIGLHKLBALlm+fLlWamfQ4cOtd4RGDduXCz9cPHixdafRGjUqJEZVeAiV7z99ttBtWrVFDcgp0yZMiUrNfTpp5+23hHo1q1bbH3xsMMOswcIXAhcZEZ4dLLHYYBcdMUVV2Sljq5YscJ6R6BSpUrB6tWrY+mN4V1g9oC4NW7c2KwqcJELJkyYoKgBOal9+/ZZq6X777+/NY/Agw8+GEtvfOedd6w/sWvSpIlZVeAi7cLTtZo3b66oATmpqKgo2LhxY1bq6dlnn23NI9CzZ8/YeuQhhxxiDxC4ELjYNzfffLOCBuS0F154ISv19O6777beEahatWrWQrMeSdLst99+5lWBizQL3zmoWbOmggbktBtvvDErNfX111+33hF5/PHHY+mTCxcutP7E6mtf+5qZVeAizS6++GLFDMh5J5xwQlZq6rZt21yAHJH+/fvH1ivbtWtnDxC4ELjYc3//+9+DwsJCxQzIedWrVw927NiRldrasWNHax6BunXrZm0P/91NN91kD4hN06ZNza0CF2l18sknK2RA3pg5c2ZWausPf/hD653yd/H+3Ztvvmn9iU2zZs3MrQIXaf11q6CgQCED8kZ4oEU26usjjzxivSNy6aWXxtY327Ztaw+IRXiStNlV4CKFzjzzTEUMyCt9+vTJSn1dvHix9Y7weOyysrJY+ubw4cPtAQIXAhe7Z9GiRd7dAvJOw4YNg/Ly8shrbPhvNGjQwJqn/NHQfzd//nzrTyxatGhhfhW4SJsLL7xQAQPy0jvvvJOVOnvKKadY74gMGzYstv7Zpk0be0DW7b///uZXgYs0+fDDD4PKlSsrYEBeeuCBB1yWm3IHHXRQbD30hhtusAcIXAhcOD0L4ItccMEFWam1f/zjH613DvxS+e/+9re/WX+yrmXLlmZYgYu0WLVqVVCtWjXFC/DyecTWrl3rJNgI3XXXXbH10tatW9sDsuqAAw4wxwpcpMWdd96pcAF577333stKzT3wwAOtd0SOP/742HrpddddZw/IqpKSEnOswEUahKdm+VYOIHvvcZ1zzjnWOyJFRUXBmjVrYumn8+bNswfkzXuLCFzsgalTpypaAP/l/PPPz0rdveOOO6x3hCZPnhxbT/36179uD8ia8HRMs6zARQqcdtppihbAf2natKkvunJA//79Y+upV1xxhT0gaw455BCzrMBF0i1durTi8QtFCyB773GtXLnSWkeobt26wc6dO2Ppq9OmTbMHZM1hhx1mnhW4SLrhw4crWAAxvMe13377We8ITZ8+PZa+Gga94uJie0BWHHHEEeZZgYskC5vC1772NQUL4DP69u2blRp88sknW+8IDRkyJLb+2q9fP3tAVnTo0MFMK3CRZE8//bRiBfBvGjRoEOzatSvyGnz11Vdb7xx9tyU8tMMekA1HHXWUmVbgIsnOPPNMxQrgc8yaNSvyGhw+umito7Vs2bJY+uuGDRuCypUr2wMi17lzZzOtwEVSbdq0KahevbpiBfA5Ro4cGXkdfv311611xCZMmBBbn+3WrZs9IHLf+MY3zLUCF0k1ceJEhQrgC3Tp0iXyOrxu3TprHbHzzjsvtj7785//3B4Qua5du5prBS6S6pRTTlGoAL5AeF3Gxo0bI6/FjRs3tt4RatKkSVBeXh5Ln120aJE9IHLHHXecuVbgIolWr17t2XKAr/DGG29EXo87duxorSM2f/782PptixYt7AGR+ta3vmW2FbhIovvuu0+RAvgSxxxzTLB169bI63GvXr2sd8R+8pOfxNZvL774YntApLp37262FbhIovDnZ0UKSJPwl4JWrVrttdatW1f8mvRZ4XtaPXr0qHjEOnzX54orrgjGjRsXzJgxI2v1eNCgQfY3Yt/+9rdj67eTJk2yB0TqxBNPNNsKXCTN0qVLg8LCQkUKSJV58+blZE2+5ppr7G/E6tSpk5V71T7PypUrg4KCAvtAZMIL1M23AhcJM3bsWAUKSJ2pU6fmZE2+/PLL7W8WLFiwILY9Di9gtgdE5dRTTzXfClwkzUknnaRAAanz8MMP52RNDo90tr/RC99djmuPw0dV7QFR+c53vmO+FbhIks2bNwdVq1ZVoIDUGTVqVM7V5I8//tgj3lly/vnnx7bP4eXL9oCo9O7d24wrcJEkTz75pOIEpNJVV12VczV52LBh9jZLDjjggNj2+c0337QHRKZPnz5mXIGLJPnud7+rOAGpFJ4imEv1ODxyvkGDBvY2iz755JNY9rq0tDSoVq2aPSASZ511lhlX4CIpysrKgv32209xAlIpPL49l2py+Iikfc2u5557Lrb97tSpkz0gEuecc445V+AiKWbOnKkwAal12GGH5Uw93rBhg1+3YhDnBcg/+MEP7AGR6NevnzlX4CIpfvzjHytMQGo1btw4Z+rxTTfdZE9jED5WH9ee33LLLfYAj1sjcOW6I444QmECUis8zS98FybttXjNmjUVF/Ha0+zr3LlzbPv+q1/9yh4QiYsuusicK3CRBJ9++qmb7oHUW7lyZerr8TXXXGMvY1K7du2gvLw8ln3/wx/+YA+IxIABA8y6AhdJ8NhjjylKQOotWLAg1bV4yZIlTquL2dKlS2PZ+zlz5lh/IjFo0CCzrsBFEgwcOFBRAlLvpZdeSnUtDu/LsY/xmjVrVix7v2jRIutPJK644gqzrsBFEhx44IGKEpB6Dz30UGrr8Msvv2wPE+DZZ5+NZf/ffvtt608krr76arOuwEXcwoseFSQgF4wYMSKVdTg87OPQQw+1hwnw8MMPx/I38I9//MP6E4lrr73WvCtwEbdHH31UQQKcxhWjn/70p/YvIe66665Y/gYWLlxo/YlEeO2PeVfgImbh6TUKEpALjjvuuNTV4PBkxbp169q/hBg2bFgsfwfz58+3/vjlH4ErV5WUlChIQE5o3rx56mrwhRdeaO8SZMiQIbH8Hbz22mvWn0jcdttt5l2BiziFx98qRkAuCS8OTksNnj59ujsQE2b48OGx/C2Eh3VYf6IwatQoM6/ARZwmTpyoGAE5JQwxaai/27ZtC1q3bm3P/BpQYfLkydafSITviJp5BS5i9IMf/EAxAnLKz3/+81TU3+uvv95+JdDdd98dy9/DfffdZ/2JxNixY828AhdxOuKIIxQjIKd873vfS3ztffPNN4PKlSvbrwQKg08cfxO33nqr9ScS9957r5lX4CIuW7ZsCSpVqqQYATmlbdu2ia69ZWVlQZcuXexVQr3wwgux/F0MHDjQ+hOJX/3qV+ZegYu4vPrqqwoRkHPCQyhWrVqV2Np7zz332KcE+/DDD2P5u+jZs6f1JxJxXeaNwMV/GT16tEIE5KQnn3wykXV3yZIlQe3ate1RQlWvXr3iF0iP+JNLHn30UXOvwEVczjzzTIUIyEmDBw9O5KOExx9/vP1JsMMPPzy2v4/69evbAyIxZcoUc6/ARVxatGihEAE5KbzQPWk1Nzw90d44cOWLrghwHxtReeqpp8y9AhdxWLFihSIE5LTwJMCk1Nx33nmn4nE1+5JsTzzxRCx/H4sXL7b+RGbq1KlmX4GLOITfdihCQC4Lj9lOyqOE3/zmN+1JwhUVFQVr166N5W/kmWeesQdE5s9//rPZV+AiDsOGDVOEgJx25JFHOqCI3XbMMcfE9jdy55132gMiM3v2bLOvwEUcunXrpggBOe9vf/tbrLV2/vz5QdWqVe2FX0S/1Pnnn28PiMxbb71l9hW4iEODBg0UISDnXXbZZbHW2sMOO8w+pEBhYWHw0UcfxfZ30qFDB/tAZN5//32zr8BFti1fvlwBAvJCcXFxsHXr1lhq7Q9+8AN7kBInnXRSrO/41axZ0z4QmU8++cT8K3CRbc8//7wCBOSNX/ziFw4m4ks9/vjjsfXk8NcHe0CU1q9fb/4VuPByLkB0mjdvHmzfvj1rNXbZsmUusU2R8BH7bP59/Lvf//739oFIxfn3jcCVt8477zwFCMgr999/f1bq665duxwBnzI33HBDrD35uuuusw9EJrzuwOwrcBGDQw89VBEC8kqTJk2y8ljNNddcY71TpEaNGsGqVati7cnHHnusvSAytWrVMvsKXGRb+LNy5cqVFSEg71x55ZWR1tcnn3wyKCgosNYpcsUVV8Tak3fu3BlUr17dXhCZRo0amX8FLuK4E0YBAvJRpUqVgrlz50ZSW8P7vsJfS6xzeoRfPsZ5FHxo1qxZ9oJIHXTQQeZfgYtse+SRRxQgIG+VlJQEGzZsyGhd/ec//xm0bNnS+qbMRRddFHtPHjNmjL0gUl26dDH/Clxkm/cLgHzXp0+foLy8PGOPaX/rW9+yrin8dSsJl8GeddZZ9oNI9erVy/wrcJFtJ598sgIE5L1LL710n0NXeCLhmWeeaT1Tuv9x9+PwwuPGjRvbDyI1cOBA86/ARba1bt1aAQL4L5dddllFaNqbWrpjx46gf//+1jGFwkMqli9fHns/nj17tv0gcj/72c/MvwIX2RQOFlWqVFGAAP6/bt26BStXrtyjWrp48eLguOOOs34pFT5an4SePGLECPtBpMJTU9977z0zsMBFNoWnMSlAAP95bHJ4eMG2bdu+8nCM4cOHB1WrVrVuKVWnTp1gzZo17sQkb75QMv8KXGTZ9OnTFSCALxBejjxgwIDg8ccfD+bMmRMsWrQoeO2114Lx48dXHG7gCYH0u/XWWxPRjxcsWGA/iNxvfvMb86/ARbZNmjRJAQIgLzVr1izYsmVLIvrxtddea0+I1MEHH1xxsbb5V+Aiy+6++25FCIC89PDDDyeiF5eWlgZNmza1J0Tq97//vdlX4CIOQ4cOVYQAyDuHH374Xp9ImWnPPvusPSFS4aE+5l6Bi5hccMEFChEAeefFF19MTC8+44wz7AmRqVGjRrBw4UJzr8BFXE488UTFCIC8cvLJJyemD4cnJDrlkij9+te/NvMKXMSpQ4cOihEAeaOoqKjiRMCk9OHwElr7QlTCy9jNuwIXMSspKVGQAMgb3//+9xPVh4844gj7QiS6du2amFM4EbjyWni5p6IEQD6oXr16sHTp0sT04Hnz5tkXInH66acHW7duNesKXCSB58YByBc33XRTonrwj370I/tCRlWrVi0YNWpUUFZWZs4VuEjMxilOAOSBxo0bBxs3bkxM/w0H4vDiZXtDpn69vfDCC4PFixebbwUukmTlypWKFAB5Yfz48Ynqwa+++qp9Ya/DVbt27SoOxAh/zfrjH/8YbN682WwrcJFE7777rsIFQM5r06ZNUFpamqgePGPGjIph+brrrguuvPLK4JJLLgn69esXnH322cFZZ50V9OjR4z8cf/zxQceOHf9D27Ztg1atWu2Vli1bBvXq1YtMYWFhYv4OiouLI/v/DH+t/Pe1PfTQQ/9jr4499th/7ecpp5xSsd/nnntuxf5ffvnlwbBhw4Ibb7yx4m8jPMFywoQJwXPPPRfMmjUr+PDDDx2CIXBZhLSZO3euRgxAznvmmWf0fUDgIvteeeUVjRiAnHbMMccE5eXl+j4gcJF9Tz/9tGYMQE57/fXX9XxA4CIe4XPBmjEAuap37976PSBwEZ+xY8dqyADkpKKiomDhwoX6PSBwEZ9bb71VUwYgJ33/+9/X6wGBi3gNHTpUUwYgJ+8pWrp0qV4PCFzEK7zvQWMGINeEdxnp84DARezCS/Y0ZgBySXi57dq1a/V5QOAifhdddJHmDEBO+clPfqLHAwIXydCvXz/NGYCc0axZs2Dr1q16PCBwkQxnnHGGBg1Azvj1r3+tvwMCF8nRs2dPDRqAnFBSUhKUlpbq74DARXL06NFDkwYgJ0yYMEFvBwQukuXYY4/VpAFIvdatW/t1CxC4SJ6jjz5aowYg9SZNmqSvAwIXyXPkkUdq1ACk2oEHHujXLUDgIpnatm2rWQOQar/5zW/0dEDgIplatWqlWQOQWu3atQvKysr0dEDgIpnCCyI1bADS6oknntDPAYGL5GrUqJGGDUAqHXLIIX7dAgQukq1OnTqaNgCp9NRTT+nlgMBFslWrVk3TBiB1jjjiiKC8vFwvBwQukq2wsFDjBsDJhAACF5kWfjOoaQOQNuEJu+7dAgQuBC4AiMAvf/lLfRwQuEi+8GQnjRuANGnSpEmwbds2fRwQuEi+Xbt2ad4ApMqdd96phwMCF+kQPv+ueQOQFuFVJuvXr9fDAYGLdNi5c6cGDkBqXH/99fo3IHAhcAFAplWtWjX45JNP9G9A4CI9duzYoYkDkAqDBg3SuwGByyKky/bt2zVxABKvqKgoeO+99/RuQOCyCAIXAGRa37599W0AgSulm6aRA5BwM2bM0LMBBK70CS+O1MgBSLIOHTro2QACVzpt3bpVMwcg0SZOnKhnAwhc6bRlyxbNHIDEatSokX4NIHAJXAAQhZtuukm/BhC40mvz5s0aOgCJVLly5WD58uX6NYDAlV6bNm3S1AFIpHPPPVevBhC40m3jxo2aOgCJNHPmTL0aQOASuADAUfAAAhefY8OGDRo7AInzyCOP6NMAApd3uAAg0xo2bBhs375dnwYQuBwLDwCZdvXVV+vRAAJXDm2a5g5AgixcuFB/BhC4csOOHTs0dwASo0uXLvozgMCVO3bt2qXBA5AYDz74oP4MIHDljvLycg0egESoVatWxWFO+jOAwJVTCgoKNHoAYnfJJZfoywACV+6pVKmSRg9A7GbPnq0vAwhcuadKlSoaPQCxOuyww/RkAIErN1WvXl2zByBWY8eO1ZMBBK7cVLNmTc0egNhUrVo1WL16tZ4MIHDlpjp16mj4AMSmb9+++jGAwJW7iouLNXwAYvOHP/xBPwYQuHJX/fr1NXwAYhH2oB07dujHAAJX7mrUqJGmD0AsLr30Ur0YQODKbU2aNNH0AYjFa6+9phcDCFy5rWnTppo+AFnXokWLoKysTC8GELhyW/PmzTV+ALJu2LBh+jCAwJX7WrZsqfEDkHULFizQhwEErtx3wAEHaPwAZFXbtm31YACBKz+0bt1a8wcgq+644w49GEDgyg8HHXSQ5g9A1hQUFARLlizRgwEErvxwyCGHGAAAyJquXbvqvwACV/7o2LGjAQCArBk7dqz+CyBw5Y8uXboYAADI2uOES5cu1X8BBK780a1bN0MAAFnRuXNnvRdA4Movp556qiEAgKwYPXq03gsgcOWXPn36GAIAyIrFixfrvQACV37p37+/IQCAyB1++OH6LoDAlX+++93vGgQAiNzNN9+s7wIIXPnn0ksvNQgAELk333xT3wUQuPLPVVddZRAAIFKtW7fWcwEErvw0fPhwwwAAkRo2bJieCyBw5afwiF7DAABRmj17tp4LIHDlp1/+8peGAQAi06xZs6C8vFzPBRC48tPkyZMNBABE5vLLL9dvAQSu/PXMM88YCACIzIsvvqjfAghc+Wv69OkGAgAiUbNmTb0WQODKb/PmzTMUABCJ008/Xa8FELjy27vvvmsoACASDzzwgF4LIHDlt5UrVxoKAMi4goKCYPny5XotgMCV30pLSyuaouEAgEzq0KGDPgsgcBGqV6+e4QCAjLrxxhv1WACBi9BBBx1kOAAgo2bNmqXHAghchLp06WI4ACBjGjVqFJSVlemxAAIXod69exsQAMiYiy66SH8FELj4bwMGDDAgAJAxTzzxhP4KIHDx366//noDAgAZUbly5WD9+vX6K4DAxX8bM2aMIQGAjDjhhBP0VgCBi8967LHHDAkAZMTdd9+ttwIIXHzWX//6V0MCABmxePFivRVA4OKzli9fbkgAYJ+1bt1aXwUQuPh34V0pVapUMSwAsE+GDBmirwIIXHyeAw44wLAAwD7585//rKcCCFx8nuOPP96wAMBeq1u3brBz5049FUDg4vNceOGFBgYA9lr//v31UwCBiy8yfPhwAwMAe+03v/mNfgogcPFFJkyYYGAAYK9UqlQpWLt2rX4KIHDxRWbNmmVoAGCvhO8B66UAAhdfYuPGjUFBQYHBAYA9dvfdd+ulAAIXX6Vp06YGBwD22OLFi/VRAIGLr9K9e3eDAwB7pKSkRA8FELjYHZdffrnhAYA9cvXVV+uhAAIXu+Pee+81PACwR6ZPn66HAghc7I6waRoeANhdxcXFwc6dO/VQAIGL3RHeoeKkQgB2V79+/fRPAIGLPRG+/GyIAGB3TJ48We8EELjYE3379jVEAPCVioqKgjVr1uidAAIXe+Kuu+4ySADwlY4//nh9E0DgwsEZAEQh/IJO3wQQuNhDmzZtCgoLCw0TAHypd955R98EELjYG23btjVMAPCFwgOW9EsAgYu9dMEFFxgoAPhCV155pX4JIHCxt8aPH2+gAOALhe/76pcAAhd76e233zZQAPC5GjZsGJSWluqXAAIXe6u8vDxo0qSJwQKA/zBgwAC9EkDgYl+dffbZBgsA/sPzzz+vTwIIXOyrcePGGSwA+F9q166tRwIIXGTCW2+9ZbgA4H/p37+/HgkgcJGp97jCF6MNGAD8tyeeeEKPBBC4yJQ+ffoYMACoULVq1WDTpk36I4DARabce++9hgwAKpx22ml6I4DARSYtWbLEkAFAhYceekhvBBC4yLQ2bdoYNADyXFFRUbB69Wp9EUDgItOuuuoqwwZAnuvWrZueCCBwEYWXXnrJsAGQ5+655x49EUDgIgrbt28PatWqZeAAyFMFBQXB0qVL9UQAgYuohCdTGToA8lPnzp31QgCBiyjdd999hg6APDVq1Ci9EEDgIkofffSRoQMgD1WqVClYvny5XgggcBG19u3bGz4A8kzv3r31QACBi2y45ZZbDB8Aeea5557TAwEELrJh4cKFhg+APNKiRYtg165deiCAwEW2HHzwwYYQgDwxcuRIvQ9A4CKbrrvuOkMIQB4oKioKPv74Y70PQOAim2bPnm0QAcgDvXr10vcABC6yrby8PNh///0NIwA57tlnn9X3AAQu4jB48GDDCEAOa968ucMyAAQu4jJ9+nQDCUAOu/nmm/U7AIGLuJSVlQVNmzY1lAA4LAMAgQuPFQKwu0477TR9DkDgIm4zZ840mAA4LAMAgYuolJSUGE4AcsiBBx5Y8di4HgcgcJEALkEGyC333HOP/gYgcJEUCxYsMKAA5Iji4uJg8+bN+huAwEWSHHLIIQYVgBwwdOhQfQ1A4CJpbrnlFoMKQA4cBb9kyRJ9DUDgImnef//9oKCgwMACkGLnnHOOngYgcJFURx11lIEFIMVef/11/QxA4CKpfvaznxlYAFIq/NJMLwMQuEiwVatWBZUrVza4AKTQY489ppcBCFwkXc+ePQ0uACnTrFmzYOfOnfoYgMBF0k2ZMsXwApAyo0aN0sMABC7SIrw00wADkA41atQI1qxZo38BCFykxYABAwwxACkxaNAgvQtA4CJNXnvtNUMMQAoUFhYGixYt0rsABC7SpLy8PGjVqpVhBiDh+vTpo28BCFyk0Y033miYAUi4GTNm6FkAAhdp9N577wUFBQUGGoCE6t69u34FIHCRZt/4xjcMNQAJNW3aNL0KQOAizcaPH2+oAUigTp066VMAAhdpt3Hjxor7XQw3AMny9NNP61MAAhe54LzzzjPcACRImzZtgrKyMj0KQOAiF7z88ssGHIAEmTBhgv4EIHDhTi4AMq1FixbBjh079CcAgYtcMmLECIMOQAL84he/0JcABC5yzYcffhgUFhYadgBi1KBBg2DLli36EoDARS7q1q2bgQcgRrfddpt+BCBwkasmTZpk4AGISe3atYN169bpRwACF7lq27ZtQXFxscEHIAbXXnutXgQgcJHrLrnkEoMPQJZVq1Yt+OSTT/QhAIGLXDdz5kzDD0CWDR48WA8CELjIF+3atTMAAWTx160VK1boPwACF/nipz/9qSEIwK9bAAhcRGHNmjVB1apVDUIAWfh1a/ny5XoPgMBFvunbt69hCCBiP/rRj/QcAIGLfDRt2jTDEIBftwAQuIhCeXl5UFJSYigC8OsWAAIXUbjtttsMRQB+3QJA4CIKn376aVCpUiXDEUCGXXnllfoMgMAF/zc47bTTDEcAft0CQOAiCs8884wBCcCvWwAIXEShtLQ0aNq0qSEJIEO/bq1YsUJ/ARC44H/ccMMNBiWADLjqqqv0FQCBC/63JUuWBIWFhYYlAL9uASBwEYXu3bsbmAD8ugWAwEUUpkyZYmAC2Es1atSouGpDPwEQuOBz7dixI2jUqJHBCWAvDBs2TC8BELjgy4WPwxicAPZM3bp1g7Vr1+ojAAIXfLlFixYFBQUFBiiAPXD77bfrIQACF+yeLl26GKAAdlP4KPamTZv0DwCBC3bPQw89ZIgC2E333HOP3gEgcMHu27JlS1CnTh2DFMBXaNmyZbB9+3a9A0Dggj0zcOBAwxTAV5g4caKeASBwWQT23Ny5cw1TAF/i4IMPDkpLS/UMAIHLIrB32rdvb6gC+AK/+93v9AoABC723rhx4wxVAJ+jU6dOQXl5uV4BgMDF3tuwYUNQo0YNwxXAv3n55Zf1CQAELvbdBRdcYLgC+IwePXroDwAIXGTGq6++asAC+IyZM2fqDwAIXGRO27ZtDVkA/+WMM87QFwAQuMisu+66y6AF5L2ioqJg4cKF+gIAAheZtXr16qBq1aoGLiCvXXzxxXoCAAIX0TjrrLMMXEDeCr90+vDDD/UDAAQuovHCCy8YuoC8dc011+gFAAhcRKesrCxo2bKlwQvIO/Xq1QvWrl2rFwAgcBGtkSNHGr6AvDNmzBg9AACBi+gtW7as4pQuAxiQLw444IBg+/btegAAAhfZceqppxrCgLwxZcoUtR8AgYvsefrppw1hQF44+uijg/LycrUfAIGL7CktLQ2aNm1qGANy3iuvvKLuAyBwkX3XXXedYQzIab1791bvARC4iMcHH3wQFBQUGMqAnBQeDvSPf/xDvQdA4CI+J5xwgsEMyEmXXnqpOg+AwEW8Jk+ebDADck6tWrWCTz/9VJ0HQOAiXuG9NA0bNjSgATnllltuUeMBELhIhsGDBxvQgJwRnsC6ZcsW9R0AgYtkeOuttwxpQM749a9/rbYDIHCRLJ07dzaoAanXtm3binsG1XUABC4S5YEHHjCsAak3depUNR0AgYvk2bx5c8WpXgY2IK26d++ungMgcJFcF198saENSO0lxwsWLFDLARC4SK4///nPBjcglQYNGqSOAyBwkWzl5eVBSUmJ4Q1IleLi4mD16tXqOAACF8k3cuRIAxyQKj/72c/UbwAELtLho48+CgoLCw1xQCq0adMm2Llzp/oNgMBFeoQnfRnkAMfAAyBwQQQmTZpkkAMSr0ePHmo2AAIX6bNt27aKl9ANdEBSVapUKVi4cKGaDYDARToNGDDAUAck1o9+9CO1GgCBi/R6/fXXDXVAItWvXz9Ys2aNWg2AwEW6had/Ge6ApLn33nvVaAAELtLv9ttvN9wBidKuXbugtLRUjQZA4CL9li9fHhQVFRnygMR44YUX1GcABC5yx7e//W1DHpAIvXr1UpcBELjILY899phBD4hdlSpVgsWLF6vLAAhc5J569eoZ+IBYDR06VD0GQOAiNw0aNMjAB8SmcePGwYYNG9RjAAQuctOsWbMMfUBsHn74YbUYAIGL3HbQQQcZ/ICs69KlS1BeXq4OAyBwkdtGjBhh+AOyqrCwMJgzZ44aDIDARe577733goKCAkMgkDWXXXaZ+guAwEX+OProow2BQFY0aNAgWLNmjdoLgMBF/hg7dqxBEMiKBx98UN0FQOAiv6xatSqoVKmSYRCIVKdOnYKysjJ1FwCBi/xz8sknGwiBSA/KmD17tnoLgMBFfpo0aZKhEIhMeNG6WguAwEXe2rJlS1CrVi2DIZBx9evXD1avXq3WAiBwkd/OPfdcwyGQcQ888IAaC4DABc8//7zhEMioo446ykEZAAhcECotLQ2aNGliSAQclAGAwAVRuPzyyw2KQEYMHDhQXQVA4ILPmjlzpkERcFAGAAIXRKG8vDwoKSkxMAL75P7771dTARC44PNcd911BkZgr3Xq1MlBGQAIXPBF3njjDUMjsNcHZcyaNUstBUDggi/TunVrwyOwx374wx+qoQAIXPBVhg0bZngE9kjjxo2DdevWqaEACFzwVebNm2eABPbIxIkT1U8ABC7YXS1btjREArvl2GOPrTjlVO0EQOCC3RS+i2GQBL5KpcJs+8oAAAK2SURBVEqVgvnz56ubAAhcsCemTp1qmAS+0tChQ9VMAAQu2FPbt28PatWqZaAEvlDz5s2DzZs3q5kACFywN77zne8YKoEv9Nvf/latBEDggr01ZswYQyXwuU466SR1EgCBC/bFggULDJbAf6hatWrwzjvvqJMACFywL8Jjnps0aWLABP6XESNGqJEACFyQCeecc44BE/iXkpIStREAgQsyZfz48YZM4F+ee+45tREAgQsy5d133zVkAhXOPPNMdREAgQsyrWXLloZNyHM1atQIPvzwQzURAIELMu3iiy82cEKeGz16tHoIgMAFUZg4caKBE/JYu3btgp07d6qHAAhcEIUVK1YYOiFPFRQUBH/605/UQgAELojSwQcfbPiEPHTBBReogQAIXBC1QYMGGT4hz9SpUyf45JNP1EAABC6I2m9/+1sDKOSZcePGqX8ACFyQDWvWrAkKCwsNoZAnOnbsGOzatUv9A0Dggmxp3779bg9rxcXFQb169TKqSZMmQatWrTLuyCOPrBguM+mYY44JevTokXF9+vQJzj777Izq379/cMkll+yT8JHTYcOG7ZVbbrklGDVq1B77yU9+Etx///17ZdKkScETTzyxx8JfeqdNm7ZXXn/99WDevHl75YMPPtgr4YE369at2yvl5eXqHgACFwAAAAIXAACAwAUAACBwAQAAIHABAAAIXAAAAAIXAAAAAhcAAIDABQAAIHABAAAgcAEAAAhcAAAAAhcAAAACFwAAgMAFAAAgcAEAACBwAQAACFwAAAACFwAAAAIXAACAwAUAACBwAQAAIHABAAAIXAAAAAIXAAAAAhcAAIDABQAAIHABAAAgcAEAAAhcAAAAAhcAAAACFwAAgMAFAAAgcAEAACBwAQAACFwAAAACFwAAAAIXAACAwAUAACBwAQAAsE/+H2bbz2LdE6qkAAAAAElFTkSuQmCC" vertex="1" parent="1">
          <mxGeometry x="1800" y="750" width="62.47" height="77" as="geometry" />
        </mxCell>
      </root>
    </mxGraphModel>
  </diagram>
</mxfile>
